<?xml version="1.0" encoding="utf-8"?>
<!-- Generator: Adobe Illustrator 16.0.0, SVG Export Plug-In . SVG Version: 6.00 Build 0)  -->
<!DOCTYPE svg PUBLIC "-//W3C//DTD SVG 1.1//EN" "http://www.w3.org/Graphics/SVG/1.1/DTD/svg11.dtd">
<svg version="1.1" id="Layer_1" xmlns="http://www.w3.org/2000/svg" xmlns:xlink="http://www.w3.org/1999/xlink" x="0px" y="0px"
	 width="84.43px" height="26.562px" viewBox="0 0 84.43 26.562" enable-background="new 0 0 84.43 26.562" xml:space="preserve">
<g>
	<path fill="none" d="M43.134,9.665c0.56-0.478,0.839-1.139,0.839-1.982c0-0.817-0.272-1.402-0.817-1.758
		c-0.545-0.354-1.389-0.531-2.534-0.531h-2.37v4.985h2.37C41.738,10.379,42.575,10.141,43.134,9.665z"/>
	<path fill="none" d="M75.499,9.665c0.56-0.478,0.838-1.139,0.838-1.982c0-0.817-0.271-1.402-0.816-1.758
		c-0.545-0.354-1.39-0.531-2.533-0.531h-2.37v4.985h2.37C74.104,10.379,74.941,10.141,75.499,9.665z"/>
	<path fill="none" d="M44.218,16.162c-0.654-0.422-1.689-0.634-3.105-0.634H38.25v5.641h2.861c2.724,0,4.087-0.981,4.087-2.942
		C45.198,17.272,44.87,16.585,44.218,16.162z"/>
	<path fill="none" d="M76.583,16.162c-0.654-0.422-1.689-0.634-3.105-0.634h-2.86v5.641h2.86c2.725,0,4.088-0.981,4.088-2.942
		C77.564,17.272,77.236,16.585,76.583,16.162z"/>
	<path fill="#010101" d="M10.462,21.005c2.207-2.262,3.998-4.414,5.373-6.458c1.376-2.043,2.065-4.004,2.065-5.884
		c0-1.689-0.375-3.174-1.125-4.455c-0.749-1.28-1.798-2.274-3.147-2.983c-1.347-0.708-2.894-1.062-4.638-1.062
		c-1.88,0-3.501,0.328-4.863,0.98C2.764,1.797,1.39,2.86,0,4.332l3.759,3.76c0.79-0.79,1.507-1.396,2.146-1.819
		C6.545,5.851,7.246,5.64,8.009,5.64c0.981,0,1.759,0.293,2.33,0.878c0.572,0.587,0.858,1.438,0.858,2.555s-0.449,2.337-1.349,3.657
		c-0.899,1.322-2.051,2.685-3.453,4.087c-1.403,1.402-3.426,3.316-6.068,5.74v4.005h18.798v-5.885h-4.331
		C13.649,20.677,12.205,20.787,10.462,21.005z"/>
	<path fill="#010101" d="M47.485,12.504v-0.163c0.98-0.408,1.785-1.164,2.412-2.268c0.626-1.104,0.938-2.255,0.938-3.453
		c0-2.425-0.897-4.135-2.695-5.129S43.891,0,40.784,0h-9.562v26.562h10.38c3.051,0,5.558-0.653,7.52-1.962
		c1.961-1.308,2.942-3.27,2.942-5.885c0-1.661-0.423-3.011-1.268-4.046C49.951,13.636,48.849,12.914,47.485,12.504z M38.25,5.394
		h2.37c1.146,0,1.989,0.177,2.534,0.531c0.545,0.355,0.817,0.94,0.817,1.758c0,0.844-0.279,1.505-0.839,1.982
		c-0.559,0.476-1.396,0.714-2.513,0.714h-2.37V5.394z M41.111,21.168H38.25v-5.641h2.861c1.416,0,2.451,0.212,3.105,0.634
		c0.652,0.424,0.98,1.109,0.98,2.063C45.198,20.187,43.835,21.168,41.111,21.168z"/>
	<path fill="#010101" d="M83.162,14.67c-0.845-1.034-1.948-1.756-3.312-2.167V12.34c0.98-0.408,1.784-1.164,2.412-2.268
		c0.626-1.104,0.939-2.255,0.939-3.453c0-2.425-0.898-4.135-2.697-5.129C78.708,0.497,76.256,0,73.15,0h-9.563v26.562h10.38
		c3.052,0,5.56-0.653,7.521-1.962c1.961-1.308,2.941-3.27,2.941-5.885C84.429,17.055,84.006,15.706,83.162,14.67z M70.616,5.394
		h2.37c1.145,0,1.988,0.177,2.533,0.531c0.546,0.355,0.816,0.94,0.816,1.758c0,0.844-0.278,1.505-0.838,1.982
		c-0.558,0.476-1.395,0.714-2.513,0.714h-2.37L70.616,5.394L70.616,5.394z M73.477,21.168h-2.86v-5.641h2.86
		c1.416,0,2.451,0.212,3.105,0.634c0.653,0.424,0.981,1.109,0.981,2.063C77.564,20.187,76.201,21.168,73.477,21.168z"/>
</g>
</svg>
