<svg xmlns="http://www.w3.org/2000/svg" width="68" height="77" viewBox="0 0 68 77"><title>EYE_STARG_6</title><path d="M10,59l9,6,10,3a18,18,0,0,0,10-3h1l9-5,10-4,5-5a15,15,0,0,0,2-7h0a20,20,0,0,0-1-6l-4-6-6-5-9-5L37,14l-3-2L27,9a14,14,0,0,0-9,1,20,20,0,0,0-7,6L6,24a49,49,0,0,0-3,9,45,45,0,0,0-1,9H2a20,20,0,0,0,2,9Z" fill="#1a1a1a"/><path d="M9,48l5,7,7,5h9l8-2,9-2h5a5,5,0,0,0,3-3h0l2-6a42,42,0,0,0,0-9c0-3-1-6-2-7s-4-3-7-3l-8-2-2-2-5-4-7-2-7,2-5,4-4,6L7,34H7a14,14,0,0,0,0,7A22,22,0,0,0,9,48Z" fill="#666"/><path d="M14,52l7,4,8,2,8-2h1l7-3,7-3,3-3a10,10,0,0,0,2-5h0a13,13,0,0,0-1-4l-3-4-4-3-7-4-8-4H32l-5-2H20l-5,4-3,6L9,34a29,29,0,0,0-1,6H9a14,14,0,0,0,2,6Z"/></svg>