<svg width="151" height="134" viewBox="0 0 151 134" fill="none" xmlns="http://www.w3.org/2000/svg">
<g clip-path="url(#clip0-braille-finger)">
<path d="M114.27 28.81C114.27 28.81 113.09 33.65 116.71 43.11C141.1 106.96 108.17 129.9 109.17 129.57C110.17 129.24 147.08 110.27 146.41 106.96C145.74 103.65 137.87 87.01 137.21 85.68C136.55 84.35 131.22 56.42 131.22 56.42L119.91 39.46L114.27 28.81Z" fill="#F0D83D"/>
<path d="M147.19 109.27C147.19 109.27 140.99 97.56 140.3 95.49C138.14 89 136.98 82.03 135.34 75.39C133.85 69.37 122.04 23.11 110.56 29.37C105.25 32.27 112.05 46.56 112.05 46.56C112.05 46.56 105.21 24.44 98.23 28.55C89.37 33.76 99.19 47.94 99.19 47.94C99.19 47.94 89.3 24.51 81.03 27.96C81.03 27.96 72.99 32.55 84.02 52.54C84.02 52.54 64.99 14.1 62.47 8.82999C57.95 -0.630013 46.8 1.69999 52.19 15.41C57.58 29.12 80.69 72.89 79.32 79.1C79.32 79.1 59.66 72.11 49.32 72.11C38.98 72.11 31.41 77.62 36.91 80.38C40.86 82.36 45.73 80.25 49.94 81.68C53.43 82.87 56.41 86.32 59.24 88.62C65.69 93.85 73.31 100.75 81.71 102.43C92.05 104.5 96.89 110.42 102.4 121.44L107.22 129.94L147.19 109.27Z" stroke="black" stroke-width="6.2167" stroke-miterlimit="10" stroke-linecap="round" stroke-linejoin="round"/>
<path d="M4.93 13.75C7.65276 13.75 9.86 11.5427 9.86 8.81998C9.86 6.09722 7.65276 3.88998 4.93 3.88998C2.20724 3.88998 0 6.09722 0 8.81998C0 11.5427 2.20724 13.75 4.93 13.75Z" fill="black"/>
<path d="M4.93 27.92C7.65276 27.92 9.86 25.7128 9.86 22.99C9.86 20.2672 7.65276 18.06 4.93 18.06C2.20724 18.06 0 20.2672 0 22.99C0 25.7128 2.20724 27.92 4.93 27.92Z" fill="black"/>
<path d="M28.36 13.75C31.0828 13.75 33.29 11.5427 33.29 8.81998C33.29 6.09722 31.0828 3.88998 28.36 3.88998C25.6372 3.88998 23.43 6.09722 23.43 8.81998C23.43 11.5427 25.6372 13.75 28.36 13.75Z" fill="black"/>
<path d="M81.78 13.75C84.5028 13.75 86.71 11.5427 86.71 8.81998C86.71 6.09722 84.5028 3.88998 81.78 3.88998C79.0572 3.88998 76.85 6.09722 76.85 8.81998C76.85 11.5427 79.0572 13.75 81.78 13.75Z" fill="black"/>
<path d="M100.69 13.75C103.413 13.75 105.62 11.5427 105.62 8.81998C105.62 6.09722 103.413 3.88998 100.69 3.88998C97.9672 3.88998 95.76 6.09722 95.76 8.81998C95.76 11.5427 97.9672 13.75 100.69 13.75Z" fill="black"/>
<path d="M121.23 13.75C123.953 13.75 126.16 11.5427 126.16 8.81998C126.16 6.09722 123.953 3.88998 121.23 3.88998C118.507 3.88998 116.3 6.09722 116.3 8.81998C116.3 11.5427 118.507 13.75 121.23 13.75Z" fill="black"/>
<path d="M28.36 27.92C31.0828 27.92 33.29 25.7128 33.29 22.99C33.29 20.2672 31.0828 18.06 28.36 18.06C25.6372 18.06 23.43 20.2672 23.43 22.99C23.43 25.7128 25.6372 27.92 28.36 27.92Z" fill="black"/>
<path d="M42.74 27.92C45.4628 27.92 47.67 25.7128 47.67 22.99C47.67 20.2672 45.4628 18.06 42.74 18.06C40.0172 18.06 37.81 20.2672 37.81 22.99C37.81 25.7128 40.0172 27.92 42.74 27.92Z" fill="black"/>
<path d="M101.51 27.92C104.233 27.92 106.44 25.7128 106.44 22.99C106.44 20.2672 104.233 18.06 101.51 18.06C98.7873 18.06 96.58 20.2672 96.58 22.99C96.58 25.7128 98.7873 27.92 101.51 27.92Z" fill="black"/>
<path d="M131.92 27.92C134.643 27.92 136.85 25.7128 136.85 22.99C136.85 20.2672 134.643 18.06 131.92 18.06C129.197 18.06 126.99 20.2672 126.99 22.99C126.99 25.7128 129.197 27.92 131.92 27.92Z" fill="black"/>
<path d="M28.36 42.31C31.0828 42.31 33.29 40.1027 33.29 37.38C33.29 34.6572 31.0828 32.45 28.36 32.45C25.6372 32.45 23.43 34.6572 23.43 37.38C23.43 40.1027 25.6372 42.31 28.36 42.31Z" fill="black"/>
</g>
<defs>
<clipPath id="clip0-braille-finger">
<rect width="150.3" height="133.05" fill="white"/>
</clipPath>
</defs>
</svg>
