<svg width="141" height="117" viewBox="0 0 141 117" fill="none" xmlns="http://www.w3.org/2000/svg">
<g clip-path="url(#clip0-braille-arrow)">
<path d="M91.11 46.15C101.79 39.57 111.07 42.27 111.07 42.27L111.71 57.66L140.02 33L111.71 10.4V22.73C111.71 22.73 98.14 20.57 84.54 26.02C74.45 30.06 65.93 37.12 54.54 51.5C37.28 73.27 23.9 88.89 6.64 88.89C6.64 88.89 6.64 108.61 6.64 108.62C6.65 110.78 21.53 107.92 22.89 107.67C51.75 102.26 67.04 60.96 91.11 46.15Z" fill="#F0D83D"/>
<path d="M82.48 75.33C93.99 86.02 110.89 83.55 110.89 83.55V69.58L139.2 92.18L110.89 116.84V104.89C110.89 104.89 97.28 104.1 89.56 102.02C79.18 99.22 69.02 88.8 68.92 88.89C68.93 88.88 82.48 75.33 82.48 75.33Z" fill="#F0D83D"/>
<path d="M51.66 37.11L39.74 50.26C39.74 50.26 24.95 37.52 4.81 43.27V23.14C33.17 19.03 51.66 37.11 51.66 37.11Z" fill="#F0D83D"/>
<path d="M89.08 38.53C99.76 31.95 109.04 34.65 109.04 34.65L109.68 50.04L137.99 25.38L109.68 2.78V15.11C109.68 15.11 96.11 12.95 82.51 18.4C72.42 22.44 63.9 29.5 52.51 43.88C35.25 65.66 21.88 81.28 4.62 81.28C4.62 81.28 4.62 101 4.62 101.01C4.63 103.17 19.51 100.31 20.87 100.06C49.72 94.64 65.01 53.35 89.08 38.53Z" stroke="black" stroke-width="5.5612" stroke-miterlimit="10" stroke-linecap="round" stroke-linejoin="round"/>
<path d="M80.45 67.71C91.96 78.4 108.86 75.93 108.86 75.93V61.96L137.17 84.56L108.86 109.22V97.27C108.86 97.27 95.25 96.48 87.53 94.4C77.15 91.61 66.99 81.18 66.89 81.27C66.9 81.27 80.45 67.71 80.45 67.71Z" stroke="black" stroke-width="5.5612" stroke-miterlimit="10" stroke-linecap="round" stroke-linejoin="round"/>
<path d="M49.63 29.49L37.71 42.64C37.71 42.64 22.92 29.9 2.78 35.65V15.52C31.14 11.41 49.63 29.49 49.63 29.49Z" stroke="black" stroke-width="5.5612" stroke-miterlimit="10" stroke-linecap="round" stroke-linejoin="round"/>
</g>
<defs>
<clipPath id="clip0-braille-arrow">
<rect width="140.77" height="116.84" fill="white"/>
</clipPath>
</defs>
</svg>
