<svg width="170" height="131" viewBox="0 0 170 131" fill="none" xmlns="http://www.w3.org/2000/svg">
<path d="M3.23737 54.576H116.37C111.409 45.9749 99.4365 31.9501 86.8491 30.975C76.325 30.1642 70.4319 36.6945 59.9955 36.3C46.0913 35.7631 41.3285 28.8165 29.8386 30.7887C18.3377 32.75 3.23737 54.576 3.23737 54.576Z" stroke="black" stroke-width="5.5612" stroke-miterlimit="10" stroke-linecap="round" stroke-linejoin="round"/>
<path d="M3.23738 54.576C1.21814 81.7271 16.0771 105.471 40.9005 114.652C81.0987 129.521 112.759 96.0148 116.589 55.2115C116.589 55.2115 88.2977 97.0886 59.1944 94.8315C30.091 92.5743 3.23738 54.576 3.23738 54.576Z" stroke="black" stroke-width="5.5612" stroke-miterlimit="10" stroke-linecap="round" stroke-linejoin="round"/>
<path d="M11 55C11 55 12.8862 64.8478 15.4159 65.2843C17.9346 65.7208 104.112 66.1573 105.588 65.9444C107.063 65.7208 109.371 58.0661 108.949 55.0106" stroke="black" stroke-width="5.5612" stroke-miterlimit="10" stroke-linecap="round" stroke-linejoin="round"/>
<path d="M34.2831 85.1565C37.7071 73.2026 51.3369 81.8366 58.8652 81.7818C65.0655 81.738 83.3594 74.7804 84.5665 85.8359" stroke="black" stroke-width="5.5612" stroke-miterlimit="10" stroke-linecap="round" stroke-linejoin="round"/>
<path d="M128.254 27.9947L153.363 3.04599" stroke="#F0D83D" stroke-width="5.5612" stroke-miterlimit="10" stroke-linecap="round" stroke-linejoin="round"/>
<path d="M135.53 50.7083L166.949 37.3738" stroke="#F0D83D" stroke-width="5.5612" stroke-miterlimit="10" stroke-linecap="round" stroke-linejoin="round"/>
<path d="M135.377 73.9587L166.422 84.9922" stroke="#F0D83D" stroke-width="5.5612" stroke-miterlimit="10" stroke-linecap="round" stroke-linejoin="round"/>
<path d="M125.467 92.5963C125.467 92.5963 148.732 122.673 148.699 121.325" stroke="#F0D83D" stroke-width="5.5612" stroke-miterlimit="10" stroke-linecap="round" stroke-linejoin="round"/>
<path d="M128.024 34.3497L153.583 9.86115" stroke="black" stroke-width="5.5612" stroke-miterlimit="10" stroke-linecap="round" stroke-linejoin="round"/>
<path d="M135.53 57.2933L166.949 43.9479" stroke="black" stroke-width="5.5612" stroke-miterlimit="10" stroke-linecap="round" stroke-linejoin="round"/>
<path d="M135.519 80.1383L166.269 91.9608" stroke="black" stroke-width="5.5612" stroke-miterlimit="10" stroke-linecap="round" stroke-linejoin="round"/>
<path d="M125.467 99.1704C125.467 99.1704 148.732 129.247 148.699 127.899" stroke="black" stroke-width="5.5612" stroke-miterlimit="10" stroke-linecap="round" stroke-linejoin="round"/>
</svg>
