<svg xmlns="http://www.w3.org/2000/svg" viewBox="0 0 942 14.84" role="img" aria-labelledby="title desc">
    <title>2BB</title>
    <desc>A grey timeline with </desc>
    <path d="M942,3.67v7.51H867a7.41,7.41,0,0,1-12.78,0h-73.8a7.41,7.41,0,0,1-12.78,0h-73.8a7.41,7.41,0,0,1-12.78,0h-73.8a7.41,7.41,0,0,1-12.78,0h-73.8a7.41,7.41,0,0,1-12.78,0H434.1a7.41,7.41,0,0,1-12.78,0H347.51a7.4,7.4,0,0,1-12.77,0H260.93a7.4,7.4,0,0,1-12.77,0H174.35a7.4,7.4,0,0,1-12.77,0H87.77a7.4,7.4,0,0,1-12.77,0H0V3.67H75a7.41,7.41,0,0,1,12.79,0h73.79a7.41,7.41,0,0,1,12.79,0h73.79a7.41,7.41,0,0,1,12.79,0h73.79a7.41,7.41,0,0,1,12.79,0h73.79a7.41,7.41,0,0,1,12.79,0h73.79a7.41,7.41,0,0,1,12.79,0h73.79a7.41,7.41,0,0,1,12.79,0H681a7.42,7.42,0,0,1,12.8,0h73.78a7.42,7.42,0,0,1,12.8,0h73.78a7.42,7.42,0,0,1,12.8,0Z"
          fill="#F0D83D"/>
</svg>