<svg xmlns="http://www.w3.org/2000/svg" viewBox="0 0 202.3 172.6">
    <g id="Art">
        <path class="cls-1" fill="#f0d83d" d="M202.3,33.6,192.2,72.7l-28.5-7.4V172.6H54.4V65.3L24.5,72.7,14.5,33.6,71.6,18.8,79,16.8a48.3,48.3,0,0,0,21.4,9.7,48.3,48.3,0,0,0,8.7.8,48.3,48.3,0,0,0,8.7-.8,48.3,48.3,0,0,0,20.9-9.3l6.7,1.8h.2Z"/>
        <path class="cls-2" fill="#fff" d="M45,150.8V42.1L13.7,49.8,6.1,20.4,63.5,5.4A53.5,53.5,0,0,0,85,14.6a53.4,53.4,0,0,0,9.6.9,53.4,53.4,0,0,0,9.6-.9,53.6,53.6,0,0,0,21-8.8l6.3,1.7h.2l50,13-7.6,29.4L144.3,42V150.8Z"/><path d="M62.6,10.9a58.5,58.5,0,0,0,21.6,8.6,58.4,58.4,0,0,0,10.5.9,58.4,58.4,0,0,0,10.5-.9,58.5,58.5,0,0,0,21-8.3l2.3.6,3.8,1h.2l43.3,11.2-5.1,19.7-18.8-4.9-12.5-3.2V145.8H50V35.7l-12.4,3-20.3,5L12.2,23.9,59.6,11.6l2.9-.8M64.6,0,57.1,1.9,0,16.8,10.1,55.8,40,48.5V155.8H149.3V48.5l28.5,7.4,10.1-39.1L131.1,2h-.2L124.2.4a48.3,48.3,0,0,1-20.9,9.3,48.3,48.3,0,0,1-8.7.8,48.3,48.3,0,0,1-8.7-.8A48.3,48.3,0,0,1,64.6,0Z"/>
    </g>
</svg>