<svg version="1.1" xmlns="http://www.w3.org/2000/svg" viewBox="0 0 457.86 263.67">
    <path class="cls-1" fill="#231f20" d="M60.13,50.48h-16L43.56,22,37.08,50.48H23L16.56,22,16,50.48H0L2.88.79H23.76l6.26,27,6.34-27H57.25Z"/><path class="cls-1" fill="#231f20" d="M116.28,50.48h-36V.79h35.28V13.61H96.48V19h18V31.75h-18v5.76h19.8Z"/>
    <path class="cls-1" fill="#231f20" d="M172.44,50.48h-36V.79h35.28V13.61H152.64V19h18V31.75h-18v5.76h19.8Z"/>
    <path class="cls-1" fill="#231f20" d="M228.67,13.47H216.93v37H200.66v-37H189V.79h39.68Z"/>
    <path class="cls-1" fill="#231f20" d="M299.95,51.34c-15.48,0-27-9.43-27-25.63S284.47,0,299.95,0s27,9.5,27,25.71S315.43,51.34,299.95,51.34Zm0-37.59c-6.48,0-10.66,4.75-10.66,11.59s4.18,11.59,10.66,11.59,10.58-4.75,10.58-11.59S306.43,13.75,299.95,13.75Z"/>
    <path class="cls-1" fill="#231f20" d="M391.39,29.23c0,7.92-1.8,12.6-5.4,16.2s-9.36,5.83-17.28,5.83S355,49,351.43,45.44s-5.4-8.28-5.4-16.2V.79h16.35V30c0,3,.58,4.32,1.66,5.4a7,7,0,0,0,9.36,0c1.08-1.08,1.58-2.52,1.58-5.4V.79h16.42Z"/>
    <path class="cls-1" fill="#231f20" d="M457.63,50.48H438.91L431,33.92H428.9V50.48H412.62V.79h21.6c6.12,0,10.8,1.08,14.4,3.6a14.66,14.66,0,0,1,6.12,12.24c0,10.08-6.12,13.68-8.28,15ZM436.53,14a5.55,5.55,0,0,0-3.6-.94h-4.1v8.64h4.1a5.93,5.93,0,0,0,3.6-.86,3.68,3.68,0,0,0,1.8-3.46A3.59,3.59,0,0,0,436.53,14Z"/>
    <path class="cls-1" fill="#231f20" d="M53.28,71.59,34.56,121.28H18.72L0,71.59H17.28l9.36,28.8L36,71.59Z"/>
    <path class="cls-1" fill="#231f20" d="M88.67,121.28H72.39V71.59H88.67Z"/>
    <path class="cls-1" fill="#231f20" d="M142.34,117.89c-4,3-8.93,4.25-14.69,4.25a31.44,31.44,0,0,1-19.15-6.62l7.2-12.24a25.06,25.06,0,0,0,13.25,5.4c2.16,0,3.67-.65,3.67-2.09s-1.8-2-3.6-2.59-5.76-1.8-7.2-2.3A22.27,22.27,0,0,1,115,98c-2.52-2.16-4.54-5.18-4.54-10.58a15.7,15.7,0,0,1,5.76-12c3-2.52,8-4.32,14.62-4.32s13.39,2.38,17.71,6l-6.19,11.52a20.57,20.57,0,0,0-11.81-4.75c-2.59,0-4,.5-4,2s2.3,1.94,3.46,2.3,4.18,1.22,5.9,1.8,5.76,2,8.28,4.18a13.54,13.54,0,0,1,4.68,10.8A16.48,16.48,0,0,1,142.34,117.89Z"/>
    <path class="cls-1" fill="#231f20" d="M214.37,100c0,7.92-1.8,12.6-5.4,16.2s-9.36,5.83-17.28,5.83-13.68-2.23-17.28-5.83S169,108,169,100V71.59h16.35v29.16c0,3,.58,4.32,1.66,5.4a7,7,0,0,0,9.36,0c1.08-1.08,1.58-2.52,1.58-5.4V71.59h16.42Z"/>
    <path class="cls-1" fill="#231f20" d="M285.69,121.28H268l-1.94-7H251.92l-1.87,7H233.12L250.4,71.59h18Zm-23-19.44L259,88.51l-3.67,13.32Z"/>
    <path class="cls-1" fill="#231f20" d="M337.92,121.28H304.79V71.59H321V108h16.92Z"/>
    <path class="cls-1" fill="#231f20" d="M391.59,121.28H358.47V71.59h16.2V108h16.92Z"/>
    <path class="cls-1" fill="#231f20" d="M457.86,71.59l-17.28,30.24v19.44H424.31V101.83L407.1,71.59h18l7.34,16.78,7.42-16.78Z"/>
    <path class="cls-1" fill="#231f20" d="M20.59,192.08H4.32V142.39H20.59Z"/>
    <path class="cls-1" fill="#231f20" d="M101.77,192.08h-16l-.58-28.44-6.48,28.44h-14l-6.48-28.44-.58,28.44h-16l2.88-49.68H65.41l6.26,27,6.34-27H98.89Z"/>
    <path class="cls-1" fill="#231f20" d="M158.25,172.63c-3.6,2.88-8.42,4-13.83,4H139.1v15.48H122.82V142.39h21.6c5.4,0,10.23,1.08,13.83,4s5.62,7.2,5.62,13.18S161.85,169.75,158.25,172.63Zm-12.6-17.07c-1.08-.79-2.16-.94-4-.94H139v9.72h2.66a6.49,6.49,0,0,0,4-.86,5.26,5.26,0,0,0,0-7.92Z"/>
    <path class="cls-1" fill="#231f20" d="M231.37,192.08H213.72l-1.94-7H197.6l-1.87,7H178.8l17.28-49.68h18Zm-23-19.44-3.67-13.32-3.67,13.32Z"/>
    <path class="cls-1" fill="#231f20" d="M265.81,192.08H249.54V142.39h16.27Z"/>
    <path class="cls-1" fill="#231f20" d="M333.31,192.08H314.59l-7.92-16.56h-2.09v16.56H288.31V142.39h21.6c6.12,0,10.8,1.08,14.4,3.6a14.66,14.66,0,0,1,6.12,12.24c0,10.08-6.12,13.68-8.28,15Zm-21.1-36.51a5.54,5.54,0,0,0-3.6-.94h-4.1v8.64h4.1a5.93,5.93,0,0,0,3.6-.86A3.68,3.68,0,0,0,314,159,3.59,3.59,0,0,0,312.21,155.57Z"/>
    <path class="cls-1" fill="#231f20" d="M387.13,192.08h-36V142.39h35.28v12.82H367.32v5.4h18v12.74h-18v5.76h19.8Z"/>
    <path class="cls-1" fill="#231f20" d="M446.7,186.68c-4.68,3.6-11.16,5.4-19.8,5.4H408.18V142.39H426.9c8.64,0,15.12,1.8,19.8,5.4s8.28,9.36,8.28,19.44S451.38,183.08,446.7,186.68Zm-11-28.44c-1.44-1.44-4-2.52-7.56-2.52h-3.75V178.4h3.75c3.6,0,6.12-1.08,7.56-2.52s2.88-3.6,2.88-8.64S437.2,159.67,435.69,158.23Z"/>
    <path class="cls-1" fill="#231f20" d="M36.49,245.06c-3.3,2.64-7.72,3.63-12.67,3.63H18.93v14.19H4V217.34h19.8c4.95,0,9.37,1,12.67,3.63s5.15,6.6,5.15,12.08S39.79,242.42,36.49,245.06ZM24.94,229.42a5.52,5.52,0,0,0-3.63-.86H18.87v8.91h2.44a5.94,5.94,0,0,0,3.63-.79,4.82,4.82,0,0,0,0-7.26Z"/>
    <path class="cls-1" fill="#231f20" d="M106.35,262.88H90.18l-1.78-6.4h-13l-1.72,6.4H58.17L74,217.34h16.5ZM85.3,245.06l-3.37-12.21-3.37,12.21Z"/>
    <path class="cls-1" fill="#231f20" d="M167.1,262.88H149.94l-7.26-15.18h-1.91v15.18H125.86V217.34h19.8c5.61,0,9.9,1,13.2,3.3a13.44,13.44,0,0,1,5.61,11.22c0,9.24-5.61,12.54-7.59,13.73Zm-19.34-33.46a5.08,5.08,0,0,0-3.3-.86h-3.76v7.92h3.76a5.43,5.43,0,0,0,3.3-.79,3.37,3.37,0,0,0,1.65-3.17A3.29,3.29,0,0,0,147.77,229.42Z"/>
    <path class="cls-1" fill="#231f20" d="M219.34,229H208.59v33.92H193.67V229H183V217.34h36.36Z"/>
    <path class="cls-1" fill="#231f20" d="M283.06,262.88H267.56L253.7,237.47s.33,4.95.33,8.25v17.16H239.51V217.34h16.17l13.2,25.41s-.33-4.95-.33-8.25V217.34h14.52Z"/>
    <path class="cls-1" fill="#231f20" d="M339.53,262.88h-33V217.34h32.34v11.75H321.38V234h16.5v11.68h-16.5V251h18.15Z"/>
    <path class="cls-1" fill="#231f20" d="M402.92,262.88H385.76L378.5,247.7h-1.91v15.18H361.67V217.34h19.8c5.61,0,9.9,1,13.2,3.3a13.44,13.44,0,0,1,5.61,11.22c0,9.24-5.61,12.54-7.59,13.73Zm-19.34-33.46a5.08,5.08,0,0,0-3.3-.86h-3.76v7.92h3.76a5.43,5.43,0,0,0,3.3-.79,3.37,3.37,0,0,0,1.65-3.17A3.29,3.29,0,0,0,383.58,229.42Z"/>
    <path class="cls-1" fill="#231f20" d="M449.81,259.77c-3.63,2.77-8.18,3.89-13.46,3.89a28.81,28.81,0,0,1-17.55-6.07l6.6-11.22a23,23,0,0,0,12.14,4.95c2,0,3.37-.59,3.37-1.91s-1.65-1.85-3.3-2.38-5.28-1.65-6.6-2.11a20.4,20.4,0,0,1-6.27-3.37c-2.31-2-4.16-4.75-4.16-9.7a14.39,14.39,0,0,1,5.28-11c2.77-2.31,7.33-4,13.4-4a26.41,26.41,0,0,1,16.23,5.48l-5.67,10.56A18.86,18.86,0,0,0,439,228.56c-2.38,0-3.7.46-3.7,1.85s2.11,1.78,3.17,2.11,3.83,1.12,5.41,1.65a24.69,24.69,0,0,1,7.59,3.83,12.41,12.41,0,0,1,4.29,9.9A15.1,15.1,0,0,1,449.81,259.77Z" />
    <image src="{{ 'curing-blindness_meet-our-partners.png' | asset_url }}" alt="meet our visually impaired partners"/>
</svg>