<svg xmlns="http://www.w3.org/2000/svg" viewBox="0 0 273.1 232">
    <g id="Art">
        <path class="cls-1" fill="#f0d83d" d="M273.1,42,259.3,95.3l-39-10.1V232H71V85.3L30.1,95.3,16.3,42,94.4,21.7,104.6,19a66.1,66.1,0,0,0,29.2,13.2,66,66,0,0,0,11.9,1.1,66,66,0,0,0,11.9-1.1,66,66,0,0,0,28.5-12.7l9.2,2.4.3-.2Z"/>
        <path class="cls-2" fill="#fff" d="M59.7,208V59.9L17.4,70.3,6.1,26.5,87.2,5.4a71.4,71.4,0,0,0,29.4,12.7,71.2,71.2,0,0,0,12.8,1.1,71.2,71.2,0,0,0,12.8-1.1A71.4,71.4,0,0,0,170.8,6l8.8,2.3.3-.2,70.8,18.4L239.4,70.2,199,59.8V208Z"/><path d="M86.2,10.9a76.3,76.3,0,0,0,29.5,12.2,76.2,76.2,0,0,0,13.7,1.2A76.2,76.2,0,0,0,143,23.1a76.4,76.4,0,0,0,28.7-11.7l4.7,1.2,3.8,1,.3-.2,64.1,16.6-8.8,34-29.3-7.6L194,53.4V203H64.7V53.5l-12.4,3L21,64.3,12.2,30.1,80.6,12.3l5.6-1.5M88.3,0,78.1,2.6,0,22.9,13.8,76.3,54.7,66.3V213H204V66.3l39,10.1,13.8-53.4L179.3,2.8,179,3,169.7.5a66,66,0,0,1-28.5,12.7,66,66,0,0,1-11.9,1.1,66,66,0,0,1-11.9-1.1A66.1,66.1,0,0,1,88.3,0Z"/>
    </g>
</svg>