<svg xmlns="http://www.w3.org/2000/svg" viewBox="0 0 103 103">
    <g id="Art">
        <path class="cls-1" fill="none" stroke="#231f20" stroke-miterlimit="10" stroke-width="4.91px" d="M80.9,51.5a33.4,33.4,0,0,1-58.8,0,33.4,33.4,0,0,1,58.8,0Z"/>
        <circle class="cls-2" fill="#f0d83d" cx="53.2" cy="55" r="11.9"/>
        <path class="cls-3" fill="#231f20" d="M51.5,33.8a15,15,0,1,0,15,15A15,15,0,0,0,51.5,33.8Zm0,25.6a10.6,10.6,0,1,1,6.7-18.9L59.6,42a10.6,10.6,0,0,1-8.1,17.5Zm1.4-12.3V42.9l-1.4-.2a6.1,6.1,0,1,0,5.9,4.5Z"/>
        <path class="cls-4" fill="#fff" d="M57.6,48.9a6.1,6.1,0,1,1-6.1-6.2l1.4.2v4.3h4.5A6.2,6.2,0,0,1,57.6,48.9Z"/>
        <path class="cls-3" d="M57.6,48.9a6.1,6.1,0,1,1-6.1-6.2l1.4.2v4.3h4.5A6.2,6.2,0,0,1,57.6,48.9Z"/>
        <path class="cls-5" fill="none" d="M59.6,42l-1.4-1.4A10.6,10.6,0,1,0,59.6,42ZM51.5,55a6.2,6.2,0,1,1,0-12.3l1.4.2v4.3h4.5A6.2,6.2,0,0,1,51.5,55Z"/>
        <circle class="cls-6" stroke-width="17px" stroke-dasharray="4.91 19.64" fill="none" stroke="#231f20" stroke-miterlimit="10" cx="51.5" cy="51.5" r="43"/>
    </g>
</svg>