<svg version="1.1" id="Layer_1" xmlns="http://www.w3.org/2000/svg" xmlns:xlink="http://www.w3.org/1999/xlink" x="0" y="0"
	 width="80" height="50" viewBox="0 0 80 50" enable-background="new 0 0 80.752 50.719" xml:space="preserve">
<path fill="#FFFFFF" d="M2.5,25.174C9.748,11.68,23.994,2.5,40.381,2.5c16.388,0,30.633,9.18,37.871,22.674v0.371
	c-7.248,13.494-21.494,22.674-37.881,22.674S9.738,39.039,2.5,25.545V25.174z"/>
<path fill="none" stroke="#231F20" stroke-width="5" stroke-miterlimit="10" d="M2.5,25.174C9.748,11.68,23.994,2.5,40.381,2.5
	c16.388,0,30.633,9.18,37.871,22.674v0.371c-7.248,13.494-21.494,22.674-37.881,22.674S9.738,39.039,2.5,25.545V25.174z"/>
<path fill="#231F20" d="M40.383,3.854c-10.689,0-19.349,8.667-19.349,19.349c0,10.69,8.659,19.35,19.349,19.35
	c10.682,0,19.349-8.659,19.349-19.35C59.731,12.521,51.064,3.854,40.383,3.854 M40.383,36.882c-7.56,0-13.687-6.119-13.687-13.68
	c0-7.551,6.127-13.679,13.687-13.679c3.247,0,6.229,1.133,8.576,3.022c0.666,0.542,1.282,1.141,1.839,1.79
	c2.032,2.39,3.264,5.486,3.264,8.866C54.062,30.763,47.935,36.882,40.383,36.882 M42.248,21.097v-5.595
	c-0.6-0.15-1.225-0.226-1.865-0.226c-4.379,0-7.926,3.556-7.926,7.926c0,4.38,3.547,7.927,7.926,7.927
	c4.371,0,7.918-3.547,7.918-7.927c0-0.731-0.1-1.439-0.283-2.105H42.248z"/>
<path fill="#FFFFFF" d="M48.301,23.203c0,4.379-3.547,7.926-7.917,7.926c-4.38,0-7.927-3.547-7.927-7.926
	c0-4.371,3.547-7.926,7.927-7.926c0.64,0,1.265,0.073,1.864,0.224v5.596h5.77C48.2,21.763,48.301,22.47,48.301,23.203"/>
<path fill="#231F20" d="M48.301,23.203c0,4.379-3.547,7.926-7.917,7.926c-4.38,0-7.927-3.547-7.927-7.926
	c0-4.371,3.547-7.926,7.927-7.926c0.64,0,1.265,0.073,1.864,0.224v5.596h5.77C48.2,21.763,48.301,22.47,48.301,23.203"/>
</svg>
