<svg width="299" height="206" viewBox="0 0 299 206" fill="none" xmlns="http://www.w3.org/2000/svg">
<g clip-path="url(#clip0-guidedog)">
<path d="M124.507 36.2718L110.388 15.0633C108.02 16.6371 105.697 18.3458 103.479 20.1144L119.426 39.9889C121.06 38.685 122.768 37.4259 124.507 36.2718Z" fill="white"/>
<path d="M153.659 25.2404L150.197 0C147.379 0.389697 144.532 0.91429 141.759 1.5438L147.469 26.3795C149.508 25.9149 151.591 25.5252 153.659 25.2404Z" fill="white"/>
<path d="M228.855 69.8158L252.671 60.7628C251.652 58.0949 250.513 55.4419 249.269 52.8939L226.367 64.0453C227.281 65.9188 228.12 67.8673 228.855 69.8158Z" fill="white"/>
<path d="M229.11 25.3753C227.042 23.4118 224.868 21.5233 222.635 19.7547L206.808 39.7191C208.441 41.0231 210.045 42.4021 211.559 43.8409L229.11 25.3753Z" fill="white"/>
<path d="M102.999 58.8893L81.1015 45.8494C79.6477 48.2925 78.2837 50.8405 77.0547 53.4035L100.032 64.42C100.931 62.5464 101.92 60.6879 102.999 58.8893Z" fill="white"/>
<path d="M184.251 1.4239L178.69 26.2896C180.728 26.7392 182.767 27.2938 184.745 27.9383L192.539 3.67215C189.826 2.80283 187.038 2.03842 184.251 1.4239Z" fill="white"/>
<path d="M155.488 106.312C155.428 106.282 149.013 102.73 144.591 99.9723C144.411 99.7325 144.067 99.133 143.797 98.6684C142.793 96.8847 141.189 94.0669 137.922 91.8786L138.596 83.1404C138.821 80.2327 137.337 77.4748 134.804 76.0359C133.65 75.3914 132.391 75.0617 131.117 75.0617C129.588 75.0617 128.059 75.5263 126.77 76.4556C118.197 82.5709 112.831 89.4355 111.617 95.6257C106.177 101.261 101.92 109.325 99.5068 114.571C96.9738 114.466 93.6764 114.361 89.9593 114.316L28.1329 67.3577L23.6064 73.323L77.7439 114.436C66.4128 114.841 58.7688 116.01 53.5529 117.344L53.448 116.999C32.1947 123.324 24.7755 132.422 18.8252 139.721C13.984 145.657 10.177 150.333 0 152.956L1.87353 160.211C14.4187 156.958 19.6046 150.603 24.6107 144.473C26.8439 141.73 29.1221 138.942 32.1347 136.244C30.4261 141.685 30.546 147.126 30.6659 151.682C30.8907 160.99 30.6209 164.078 23.3966 167.18C20.4289 168.454 18.6154 171.482 18.8852 174.704L20.8186 197.696C21.1484 201.578 24.3858 204.561 28.2828 204.561H40.693C43.7806 204.561 46.5384 202.673 47.6625 199.81C48.7867 196.947 48.0372 193.68 45.789 191.581L43.8106 189.753L43.5258 186.725C59.0086 180.355 64.9589 170.882 67.1922 163.718C77.0544 165.801 90.6637 168.514 98.4276 170.043V190.352C98.4276 192.6 99.4318 194.714 101.17 196.138L109.324 202.822C110.658 203.917 112.352 204.531 114.075 204.531H121.285C125.421 204.531 128.779 201.174 128.779 197.037C128.779 192.301 125.451 188.658 122.094 186.185V164.033C133.575 156.224 134.984 139.107 135.374 127.806C139.33 128.87 143.392 129.784 145.656 129.814C145.7 129.814 145.745 129.814 145.79 129.814C148.338 129.814 150.722 128.51 152.1 126.352L158.141 116.894C159.25 115.156 159.595 113.027 159.085 111.019C158.605 109.01 157.286 107.317 155.488 106.312ZM92.5972 161.215C89.7195 160.645 86.6019 160.016 83.4244 159.371C83.4394 159.281 83.4694 159.176 83.4844 159.101C84.8783 152.297 83.0497 132.392 78.868 121.9C81.5359 121.81 84.1588 121.78 86.6469 121.78C92.7321 121.78 97.978 121.99 101.141 122.14C106.746 127.941 118.557 136.079 127.145 137.503C126.815 140.066 126.351 142.644 125.661 145.117C117.238 141.145 109.354 140.651 103.419 143.738C97.7532 146.691 94.126 152.581 92.5972 161.215ZM35.5521 181.629L36.6312 193.275L40.708 197.052H28.2978L26.3643 174.06C49.8808 163.973 27.4284 142.075 47.2728 128.016C51.9492 124.703 61.1669 123.084 70.8493 122.35C74.5964 127.686 77.7889 152.611 76.1102 157.902C70.0699 156.658 64.4943 155.489 60.9721 154.68C60.9721 154.665 63.2952 172.891 35.5521 181.629ZM114.615 159.506V190.352C114.615 190.352 121.3 193.844 121.3 197.037H114.09L105.952 190.352V163.853C105.952 163.853 103.599 163.388 99.9564 162.669C101.036 156.359 103.374 152.222 106.911 150.378C112.172 147.65 119.171 150.258 122.918 152.072C120.985 155.459 118.332 158.157 114.615 159.506ZM145.82 122.335C142.133 122.26 128.584 118.018 128.584 118.018C127.969 119.232 128.104 124.044 127.805 130.009C121.345 128.69 111.048 121.586 106.641 117.059C109.189 111.648 113.656 103.435 118.932 99.0581C118.317 95.7756 121.869 89.1807 131.132 82.5709L130.053 96.57C137.487 98.2937 136.453 103.719 140.515 106.267C145.176 109.175 151.861 112.877 151.861 112.877L145.82 122.335Z" fill="#F0D83D"/>
<path d="M299 114.031H272.441C273.1 113.492 273.73 112.937 274.359 112.323C277.717 108.965 279.575 104.499 279.575 99.7475C279.575 94.9962 277.732 90.5297 274.359 87.1723C271.002 83.8149 266.535 81.9563 261.784 81.9563C257.033 81.9563 252.566 83.7999 249.209 87.1723C246.961 89.4205 245.267 91.8037 243.993 94.2318C242.704 91.8037 241.01 89.4205 238.777 87.1723C235.42 83.8149 230.953 81.9563 226.202 81.9563C221.451 81.9563 216.984 83.7999 213.627 87.1723C210.27 90.5297 208.411 94.9962 208.411 99.7475C208.411 104.499 210.255 108.965 213.627 112.323C214.241 112.937 214.886 113.507 215.545 114.031H188.986V145.147H196.555V206.015H291.476V145.147H299.045V114.031H299ZM254.5 92.4632C256.448 90.5147 259.026 89.4505 261.784 89.4505C264.542 89.4505 267.12 90.5147 269.068 92.4632C271.017 94.4117 272.081 96.9897 272.081 99.7475C272.081 102.505 271.017 105.083 269.068 107.032C262.594 113.507 252.626 113.687 247.995 113.357C247.47 108.95 247.41 99.5677 254.5 92.4632ZM218.903 92.4632C220.851 90.5147 223.429 89.4505 226.187 89.4505C228.945 89.4505 231.523 90.5147 233.471 92.4632C240.621 99.6126 240.531 108.965 240.006 113.357C235.375 113.687 225.438 113.537 218.918 107.017C216.969 105.068 215.905 102.49 215.905 99.7325C215.905 96.9747 216.954 94.4117 218.903 92.4632ZM196.45 121.526H241.01V137.653H196.45V121.526ZM204.02 145.147H241.025V198.521H204.02V145.147ZM283.952 198.506H248.52V145.147H283.952V198.506ZM291.506 137.653H248.505V121.526H291.506V137.653Z" fill="#F0D83D"/>
</g>
<defs>
<clipPath id="clip0-guidedog">
<rect width="299" height="206" fill="white"/>
</clipPath>
</defs>
</svg>
