<svg xmlns="http://www.w3.org/2000/svg" viewBox="0 0 314.474 80.702" aria-labelledby="logoDesktop" role="img">
  <title id="logoDesktop">Two Blind Brothers</title>
  <polygon fill="white" points="7.407,6.718 0.001,6.718 0.001,0.517 22.221,0.517 22.221,6.718 14.812,6.718 14.812,28.508
    7.407,28.508 "/>
  <path fill="white" d="M36.592,0.517h7.578l1.552,12.23l0.946,8.784h0.172l1.55-8.784l2.67-12.23h6.202l2.67,12.23l1.292,7.278
    l0.258,1.506h0.173l0.947-8.784l1.551-12.23h7.062l-4.65,27.992h-9.388l-2.154-11.111c-0.372-1.923-0.718-4.104-1.031-6.546h-0.173
    l-0.174,1.208c-0.372,2.554-0.66,4.334-0.859,5.338l-2.068,11.111h-9.214L36.592,0.517z"/>
  <path fill="white" d="M151.911,0.518h10.077c3.273,0,5.857,0.524,7.75,1.572c1.898,1.048,2.844,2.85,2.844,5.404
    c0,1.264-0.33,2.476-0.99,3.638c-0.66,1.164-1.506,1.96-2.541,2.39v0.174c1.434,0.431,2.598,1.19,3.488,2.282
    c0.891,1.09,1.336,2.512,1.336,4.262c0,2.757-1.033,4.824-3.102,6.202c-2.066,1.378-4.707,2.066-7.924,2.066h-10.938V0.518z
     M161.816,11.456c1.176,0,2.059-0.252,2.648-0.754s0.883-1.198,0.883-2.089c0-0.861-0.289-1.479-0.863-1.852
    c-0.574-0.374-1.463-0.56-2.668-0.56h-2.496v5.254H161.816z M162.333,22.823c2.869,0,4.307-1.033,4.307-3.1
    c0-1.006-0.344-1.729-1.035-2.176c-0.688-0.444-1.781-0.666-3.271-0.666h-3.014v5.941H162.333z"/>
  <polygon fill="white" points="191.185,0.517 198.591,0.517 198.591,22.307 209.185,22.307 209.185,28.509 191.185,28.509 "/>
  <rect fill="white" x="226.929" y="0.518" width="7.404" height="27.992"/>
  <path fill="white" d="M253.453,0.517h7.582l6.199,12.488l2.67,6.288c0,0-0.775-8.67-0.775-10.68V0.517h7.062v27.992h-7.578
    l-6.201-12.531l-2.67-6.244c0,0,0.773,8.697,0.773,10.68v8.096h-7.062V0.517z"/>
  <path fill="white" d="M291.822,0.517h8.268c4.48,0,7.996,1.12,10.553,3.36c2.553,2.238,3.832,5.742,3.832,10.506
    c0,4.767-1.256,8.312-3.768,10.638c-2.512,2.324-5.908,3.488-10.184,3.488h-8.701V0.517z M299.66,22.564
    c2.27,0,4.039-0.602,5.318-1.808s1.916-3.33,1.916-6.374c0-3.014-0.633-5.088-1.895-6.222c-1.264-1.134-3.043-1.702-5.34-1.702
    h-0.43v16.105H299.66z"/>
  <path fill="white" d="M0,52.194h10.077c3.272,0,5.856,0.523,7.75,1.57c1.896,1.051,2.843,2.85,2.843,5.404
    c0,1.264-0.33,2.479-0.99,3.639c-0.66,1.164-1.506,1.961-2.54,2.391v0.172c1.434,0.43,2.598,1.191,3.488,2.281
    c0.89,1.094,1.334,2.516,1.334,4.266c0,2.756-1.032,4.824-3.101,6.201c-2.065,1.377-4.708,2.066-7.924,2.066H0V52.194z
     M9.905,63.131c1.177,0,2.059-0.25,2.648-0.754c0.588-0.5,0.882-1.199,0.882-2.088c0-0.861-0.288-1.479-0.862-1.852
    c-0.573-0.373-1.464-0.561-2.668-0.561H7.407v5.254H9.905z M10.422,74.499c2.87,0,4.306-1.031,4.306-3.098
    c0-1.008-0.344-1.73-1.034-2.176c-0.688-0.445-1.779-0.668-3.271-0.668H7.407v5.941H10.422z"/>
  <path fill="white" d="M57.304,80.182l-4.821-9.387H49.64v9.387h-7.405V52.194h10.592c3.359,0,6.065,0.695,8.118,2.088
    c2.052,1.393,3.077,3.709,3.077,6.955c0,1.922-0.401,3.559-1.203,4.908c-0.807,1.35-1.91,2.412-3.316,3.186l6.07,10.852H57.304z
     M49.64,64.94h2.67c1.465,0,2.576-0.316,3.339-0.949c0.76-0.629,1.14-1.549,1.14-2.754c0-1.178-0.366-2.004-1.098-2.477
    c-0.732-0.475-1.858-0.711-3.381-0.711h-2.67V64.94z"/>
  <polygon fill="white" points="137.314,58.393 129.908,58.393 129.908,52.194 152.129,52.194 152.129,58.393 144.721,58.393
    144.721,80.184 137.314,80.184 "/>
  <polygon fill="white" points="170.902,52.194 178.308,52.194 178.308,62.614 186.664,62.614 186.664,52.194 194.07,52.194
    194.07,80.182 186.664,80.182 186.664,69.073 178.308,69.073 178.308,80.182 170.902,80.182 "/>
  <polygon fill="white" points="214.914,52.194 233,52.194 233,58.395 222.32,58.395 222.32,62.786 231.449,62.786 231.449,68.987
    222.32,68.987 222.32,73.983 233.429,73.983 233.429,80.182 214.914,80.182 "/>
  <path fill="white" d="M268.568,80.182l-4.822-9.387h-2.842v9.387h-7.406V52.194h10.592c3.359,0,6.066,0.695,8.117,2.088
    c2.055,1.393,3.078,3.709,3.078,6.955c0,1.922-0.4,3.559-1.203,4.908c-0.805,1.35-1.91,2.412-3.316,3.186l6.072,10.852H268.568z
     M260.904,64.94h2.67c1.465,0,2.576-0.316,3.338-0.949c0.76-0.629,1.141-1.549,1.141-2.754c0-1.178-0.365-2.004-1.1-2.477
    c-0.73-0.475-1.855-0.711-3.379-0.711h-2.67V64.94z"/>
  <path fill="white" d="M113.577,14.512c0,8.017-6.498,14.513-14.512,14.513c-8.015,0-14.513-6.496-14.513-14.513
    C84.553,6.498,91.051,0,99.065,0C107.079,0,113.577,6.498,113.577,14.512"/>
  <path fill="white" d="M113.577,66.188c0,8.014-6.498,14.514-14.512,14.514c-8.015,0-14.513-6.5-14.513-14.514
    s6.498-14.512,14.513-14.512C107.079,51.676,113.577,58.174,113.577,66.188"/>
  <path fill="white" d="M312.148,66.667c-1.492-1.355-3.861-2.516-7.016-3.445c-1.953-0.703-3.264-1.283-3.891-1.723
    c-0.533-0.375-0.793-0.852-0.793-1.461c0-0.617,0.285-1.133,0.867-1.57c0.617-0.467,1.492-0.703,2.598-0.703
    c1.107,0,1.951,0.273,2.578,0.836c0.611,0.551,0.91,1.273,0.91,2.219v0.492h6.914l0.016-0.598c0.07-2.5-0.885-4.578-2.844-6.168
    c-1.926-1.559-4.453-2.352-7.512-2.352c-3.051,0-5.592,0.715-7.551,2.125c-2.012,1.447-3.031,3.369-3.031,5.709
    c0,2.328,0.811,4.168,2.406,5.471c1.545,1.26,4.07,2.426,7.695,3.555c1.578,0.578,2.652,1.105,3.184,1.564
    c0.473,0.406,0.701,0.963,0.701,1.701c0,0.727-0.246,1.273-0.752,1.664c-0.457,0.355-1.129,0.562-2.012,0.615l-0.492-0.006
    c-1.57,0-2.723-0.297-3.422-0.879c-0.674-0.559-1.016-1.514-1.016-2.836v-0.492h-6.848l-0.105,0.582
    c-0.041,1.934,0.473,3.635,1.529,5.061c1.045,1.41,2.449,2.471,4.172,3.15c1.691,0.668,3.607,1.006,5.689,1.006
    c3.098,0,5.613-0.693,7.475-2.061c1.908-1.398,2.873-3.332,2.873-5.746C314.472,69.987,313.691,68.065,312.148,66.667"/>
</svg>
