<?xml version="1.0" encoding="utf-8"?>
<!-- Generator: Adobe Illustrator 16.0.0, SVG Export Plug-In . SVG Version: 6.00 Build 0)  -->
<!DOCTYPE svg PUBLIC "-//W3C//DTD SVG 1.1//EN" "http://www.w3.org/Graphics/SVG/1.1/DTD/svg11.dtd">
<svg version="1.1" id="Layer_1" xmlns="http://www.w3.org/2000/svg" xmlns:xlink="http://www.w3.org/1999/xlink" x="0px" y="0px"
	 width="160.041px" height="160.042px" viewBox="0 0 160.041 160.042" enable-background="new 0 0 160.041 160.042"
	 xml:space="preserve">
<g>
	<path fill="none" d="M80.021,10C41.411,10,10,41.411,10,80.021c0,38.61,31.411,70.021,70.021,70.021s70.021-31.411,70.021-70.021
		C150.042,41.411,118.631,10,80.021,10z M58.938,127.275V97.687V64.079V34.49l61.855,46.396L58.938,127.275z"/>
	<polygon fill="#FFFFFF" points="58.938,64.079 58.938,97.687 58.938,127.275 120.793,80.886 58.938,34.49 	"/>
	<path fill="#FFFFFF" d="M80.021,0C35.897,0,0,35.897,0,80.021c0,44.124,35.897,80.021,80.021,80.021s80.021-35.897,80.021-80.021
		C160.042,35.897,124.145,0,80.021,0z M80.021,150.042C41.411,150.042,10,118.631,10,80.021C10,41.411,41.411,10,80.021,10
		s70.021,31.411,70.021,70.021C150.042,118.631,118.631,150.042,80.021,150.042z"/>
</g>
</svg>
