<svg version="1.1" id="Layer_1" xmlns="http://www.w3.org/2000/svg" xmlns:xlink="http://www.w3.org/1999/xlink" x="0px" y="0px"
	 width="474.012px" height="36.401px" viewBox="0 0 474.012 36.401" enable-background="new 0 0 474.012 36.401"
	 xml:space="preserve">
<g>
	<path fill="#231F20" d="M0,0.586h11.963l4.346,19.604L20.63,0.586h11.474L36.45,20.19l4.321-19.604h11.987l-9.937,35.181H31.103
		l-4.761-19.897l-4.687,19.897H9.937L0,0.586z"/>
</g>
<g>
	<path fill="#231F20" d="M63.777,35.767V0.586h11.475V13.33h9.619V0.586h11.474v35.181H84.871V22.778h-9.619v12.988H63.777z"/>
	<path fill="#231F20" d="M107.932,0.586h12.743l5.214,11.865l5.238-11.865h12.743l-12.255,21.411v13.77h-11.475v-13.77
		L107.932,0.586z"/>
	<path fill="#231F20" d="M172.705,31.737l5.103-8.634c1.009,0.851,2.185,1.586,3.528,2.207s2.506,1.051,3.491,1.287
		c0.984,0.237,1.778,0.355,2.38,0.355c0.781,0,1.407-0.127,1.88-0.38c0.472-0.253,0.708-0.625,0.708-1.115
		c0-0.245-0.065-0.466-0.195-0.662c-0.131-0.196-0.338-0.368-0.623-0.515c-0.285-0.146-0.542-0.266-0.769-0.355
		c-0.229-0.09-0.545-0.2-0.952-0.331c-1.237-0.343-2.938-0.883-5.103-1.618c-0.049-0.016-0.195-0.069-0.439-0.159
		s-0.419-0.159-0.525-0.208c-0.106-0.049-0.289-0.131-0.549-0.246c-0.261-0.113-0.476-0.212-0.647-0.293
		c-0.171-0.082-0.387-0.193-0.647-0.332c-0.261-0.139-0.493-0.273-0.696-0.404c-0.204-0.131-0.427-0.281-0.671-0.453
		s-0.472-0.348-0.684-0.527c-1.009-0.866-1.799-1.892-2.368-3.077c-0.57-1.185-0.854-2.672-0.854-4.462s0.386-3.415,1.16-4.875
		c0.773-1.46,1.746-2.68,2.917-3.66c0.732-0.62,1.595-1.15,2.588-1.591c0.993-0.441,2.156-0.796,3.491-1.065
		c1.334-0.269,2.767-0.404,4.297-0.404c2.311,0,4.593,0.388,6.848,1.163c2.254,0.775,4.154,1.808,5.7,3.097l-4.394,8.157
		c-1.205-1.062-2.625-1.888-4.26-2.476c-1.636-0.588-3-0.883-4.089-0.883c-0.977,0-1.701,0.106-2.173,0.319
		c-0.472,0.212-0.708,0.58-0.708,1.103c0,0.114,0.016,0.221,0.049,0.319c0.032,0.098,0.089,0.188,0.171,0.27
		c0.081,0.082,0.159,0.16,0.232,0.233c0.073,0.073,0.175,0.143,0.305,0.208c0.13,0.065,0.24,0.119,0.33,0.16
		c0.089,0.041,0.211,0.089,0.366,0.146c0.154,0.058,0.269,0.099,0.342,0.123s0.191,0.057,0.354,0.098
		c0.163,0.041,0.26,0.069,0.293,0.085c2.734,0.834,4.134,1.259,4.199,1.275c2.571,0.85,4.524,1.847,5.859,2.991
		c2.213,1.863,3.32,4.421,3.32,7.674c0,1.794-0.407,3.486-1.221,5.078s-1.937,2.938-3.369,4.036
		c-2.637,2.004-6.104,3.006-10.4,3.006C181.461,36.401,176.937,34.847,172.705,31.737z"/>
	<path fill="#231F20" d="M214.223,25.879c-0.96-2.295-1.44-4.85-1.44-7.666c0-2.815,0.48-5.375,1.44-7.678
		c0.96-2.303,2.295-4.219,4.004-5.75c1.709-1.53,3.731-2.71,6.067-3.54C226.629,0.415,229.165,0,231.899,0s5.263,0.415,7.587,1.245
		s4.337,2.01,6.038,3.54c1.701,1.53,3.033,3.447,3.997,5.75c0.963,2.303,1.445,4.863,1.445,7.678c0,2.816-0.482,5.371-1.445,7.666
		c-0.964,2.295-2.296,4.207-3.997,5.737s-3.713,2.71-6.038,3.54s-4.853,1.245-7.587,1.245s-5.27-0.415-7.605-1.245
		c-2.336-0.83-4.358-2.01-6.067-3.54S215.183,28.174,214.223,25.879z M224.355,17.969c0,1.611,0.309,3.035,0.928,4.272
		c0.618,1.237,1.501,2.202,2.649,2.894s2.469,1.037,3.967,1.037c2.278,0,4.097-0.757,5.456-2.271s2.039-3.495,2.039-5.945
		c0-2.449-0.68-4.427-2.039-5.933c-1.359-1.505-3.178-2.258-5.456-2.258c-2.279,0-4.106,0.757-5.481,2.271
		C225.042,13.55,224.355,15.527,224.355,17.969z"/>
	<path fill="#231F20" d="M281.878,31.737l5.103-8.634c1.009,0.851,2.185,1.586,3.528,2.207c1.342,0.621,2.506,1.051,3.49,1.287
		c0.984,0.237,1.778,0.355,2.381,0.355c0.781,0,1.407-0.127,1.88-0.38c0.472-0.253,0.708-0.625,0.708-1.115
		c0-0.245-0.065-0.466-0.195-0.662c-0.131-0.196-0.338-0.368-0.623-0.515s-0.541-0.266-0.769-0.355
		c-0.229-0.09-0.546-0.2-0.952-0.331c-1.237-0.343-2.938-0.883-5.103-1.618c-0.049-0.016-0.195-0.069-0.439-0.159
		s-0.419-0.159-0.524-0.208c-0.106-0.049-0.289-0.131-0.55-0.246c-0.261-0.113-0.476-0.212-0.647-0.293
		c-0.17-0.082-0.387-0.193-0.646-0.332c-0.261-0.139-0.492-0.273-0.695-0.404c-0.204-0.131-0.428-0.281-0.672-0.453
		s-0.473-0.348-0.684-0.527c-1.01-0.866-1.799-1.892-2.368-3.077c-0.569-1.185-0.854-2.672-0.854-4.462s0.387-3.415,1.16-4.875
		c0.772-1.46,1.745-2.68,2.917-3.66c0.732-0.62,1.595-1.15,2.588-1.591c0.993-0.441,2.156-0.796,3.491-1.065
		c1.334-0.269,2.767-0.404,4.297-0.404c2.311,0,4.594,0.388,6.848,1.163c2.254,0.775,4.154,1.808,5.701,3.097l-4.395,8.157
		c-1.205-1.062-2.625-1.888-4.26-2.476c-1.637-0.588-3-0.883-4.09-0.883c-0.977,0-1.701,0.106-2.173,0.319s-0.708,0.58-0.708,1.103
		c0,0.114,0.016,0.221,0.049,0.319c0.032,0.098,0.09,0.188,0.171,0.27s0.159,0.16,0.231,0.233c0.074,0.073,0.176,0.143,0.306,0.208
		c0.13,0.065,0.239,0.119,0.329,0.16c0.09,0.041,0.212,0.089,0.367,0.146c0.154,0.058,0.268,0.099,0.342,0.123
		c0.072,0.024,0.19,0.057,0.354,0.098c0.162,0.041,0.26,0.069,0.293,0.085c2.734,0.834,4.134,1.259,4.199,1.275
		c2.571,0.85,4.524,1.847,5.859,2.991c2.213,1.863,3.32,4.421,3.32,7.674c0,1.794-0.407,3.486-1.221,5.078
		c-0.814,1.592-1.938,2.938-3.369,4.036c-2.637,2.004-6.104,3.006-10.4,3.006C290.634,36.401,286.109,34.847,281.878,31.737z"/>
	<path fill="#231F20" d="M323.396,25.879c-0.96-2.295-1.439-4.85-1.439-7.666c0-2.815,0.479-5.375,1.439-7.678
		c0.961-2.303,2.295-4.219,4.004-5.75c1.709-1.53,3.731-2.71,6.067-3.54c2.335-0.83,4.87-1.245,7.604-1.245s5.264,0.415,7.588,1.245
		s4.337,2.01,6.037,3.54c1.701,1.53,3.033,3.447,3.996,5.75c0.965,2.303,1.446,4.863,1.446,7.678c0,2.816-0.481,5.371-1.446,7.666
		c-0.963,2.295-2.295,4.207-3.996,5.737c-1.7,1.53-3.713,2.71-6.037,3.54s-4.854,1.245-7.588,1.245s-5.27-0.415-7.604-1.245
		c-2.336-0.83-4.358-2.01-6.067-3.54S324.356,28.174,323.396,25.879z M333.528,17.969c0,1.611,0.309,3.035,0.928,4.272
		c0.617,1.237,1.501,2.202,2.648,2.894s2.469,1.037,3.967,1.037c2.279,0,4.098-0.757,5.457-2.271
		c1.358-1.514,2.038-3.495,2.038-5.945c0-2.449-0.68-4.427-2.038-5.933c-1.359-1.505-3.178-2.258-5.457-2.258
		s-4.105,0.757-5.48,2.271S333.528,15.527,333.528,17.969z"/>
	<path fill="#231F20" d="M373.728,35.767V0.586h24.486v9.058h-13.012v5.469h12.256v9.058h-12.256v11.597H373.728z"/>
	<path fill="#231F20" d="M409.167,9.497V0.586h28.148v8.911h-8.35v26.27h-11.475V9.497H409.167z"/>
	<path fill="#231F20" d="M449.646,3.108c3.354-2.04,7.424-3.06,12.211-3.06c1.705,0,3.318,0.256,4.842,0.768
		c1.522,0.512,2.817,1.203,3.883,2.072c1.066,0.869,1.904,1.901,2.516,3.095c0.609,1.195,0.915,2.45,0.915,3.766
		c0,1.099-0.085,2.077-0.257,2.935c-0.17,0.858-0.423,1.605-0.756,2.24c-0.334,0.635-0.672,1.163-1.014,1.583
		s-0.773,0.854-1.294,1.3c-1.091,0.979-2.872,2.061-5.347,3.244c-0.191,0.104-0.338,0.201-0.441,0.296
		c-0.104,0.095-0.176,0.231-0.216,0.412s-0.063,0.331-0.071,0.45c-0.008,0.121-0.012,0.352-0.012,0.695v1.339h-9.508v-3.192
		c0-0.688,0.027-1.248,0.083-1.687c0.056-0.438,0.175-0.888,0.358-1.352s0.462-0.884,0.836-1.262
		c0.375-0.377,0.872-0.738,1.494-1.082l3.225-1.905c0.143-0.085,0.395-0.227,0.752-0.425c0.359-0.197,0.621-0.352,0.789-0.463
		c0.166-0.111,0.361-0.266,0.585-0.463s0.386-0.403,0.489-0.618c0.104-0.214,0.156-0.45,0.156-0.708
		c0-1.321-1.338-1.982-4.014-1.982c-2.523,0-5.07,0.841-7.642,2.523L449.646,3.108z M455.384,34.984
		c-1.115-0.896-1.673-2.152-1.673-3.771c0-1.617,0.558-2.875,1.673-3.771c1.114-0.896,2.604-1.344,4.467-1.344
		c1.832,0,3.305,0.452,4.42,1.354c1.113,0.904,1.672,2.161,1.672,3.771c0,1.611-0.559,2.864-1.672,3.76
		c-1.115,0.896-2.588,1.344-4.42,1.344C457.987,36.328,456.498,35.881,455.384,34.984z"/>
</g>
</svg>
