<svg xmlns="http://www.w3.org/2000/svg" viewBox="0 0 270 270">
    <g id="Art">
        <circle class="cls-1" fill="none" stroke="#fff" stroke-miterlimit="10" stroke-width="10px" cx="135" cy="135" r="130"/>
        <path class="cls-2" fill="#fff" d="M59.4,94.1c-.8,1.5-2.5,3.2-4.4,3.2h0l1.6.8-2.3,4.3L34.3,91.9l2.4-4.5,6.2,3.3a6.4,6.4,0,0,1,.6-5.3,8.7,8.7,0,0,1,2.4-2.8c2.9-2.2,6.3-2.1,9.5-.4S61.9,89.4,59.4,94.1ZM47.2,88.4a4.2,4.2,0,0,0,1.8,5.7,4.1,4.1,0,0,0,5.8-1.6,4.3,4.3,0,0,0-7.6-4.1Z"/>
        <path class="cls-2" fill="#fff" d="M66,82.7,48.3,68.5l3.2-4L69.2,78.8Z"/>
        <path class="cls-2" fill="#fff" d="M60.5,60.5l-2.7-2.8,3.7-3.5L64.1,57Zm13,13.6L61.7,61.8l3.7-3.5L77.1,70.7Z"/>
        <path class="cls-2" fill="#fff" d="M90.3,60.9l-5.1-7.8c-1-1.6-2.2-2.8-4.2-1.5s-1.6,2.9-.5,4.6l5,7.8-4.3,2.8L72.1,52.4l4-2.6,1,1.5h.1a4.9,4.9,0,0,1,2.6-4.5,7.4,7.4,0,0,1,4.5-1.1c2.1.2,3.5,1.9,4.6,3.5l5.8,8.9Z"/>
        <path class="cls-2" fill="#fff" d="M111.5,51.7l-.6-1.7h-.1c-.4,2.1-2.2,3.3-4.1,3.9-4.9,1.7-9.4-1.2-11-5.9s.3-9.6,5.1-11.3a6.6,6.6,0,0,1,5.4.3L104,30.2l4.8-1.6,7.2,21.5Zm-8.1-10.8A4.3,4.3,0,0,0,106,49a4.2,4.2,0,0,0,2.7-5.5A4.2,4.2,0,0,0,103.4,40.8Z"/>
        <path class="cls-2" fill="#fff" d="M140,35.5l-.4,13.2h-5.1l.4-13.2h-2.5V31.4h2.5l.2-5.7h5.1l-.2,5.7h2.5v3.9Z"/>
        <path class="cls-2" fill="#fff" d="M164,45.7,151.5,43a3.8,3.8,0,0,0,3.2,4,3.7,3.7,0,0,0,3.4-.9l5.1,1.1a9.1,9.1,0,0,1-9.4,3.9,9.1,9.1,0,1,1,10.6-6.7A6.6,6.6,0,0,1,164,45.7Zm-7.2-8.1a3.8,3.8,0,0,0-4.4,2l7.5,1.7A3.8,3.8,0,0,0,156.7,37.6Z"/>
        <path class="cls-2" fill="#fff" d="M171.8,57.4c-3.2-1.5-5.1-4.5-3.8-8.1l4.6,2.2a1.8,1.8,0,0,0,1.1,2.2c.7.3,1.8.4,2.2-.4s-.6-2-1.2-2.8l-1.7-1.6c-1.5-1.5-2.8-3.6-1.8-5.8s5.4-3.7,8.4-2.2,4.8,4.2,3.6,7.6l-4.5-2.1c.4-.9-.1-1.5-.9-1.8a1.3,1.3,0,0,0-1.8.4c-1.1,2.4,7.2,4.7,4.7,10.2C178.9,58.6,175,58.9,171.8,57.4Z"/>
        <path class="cls-2" fill="#fff" d="M194.9,55.4l-7.7,10.7-4.1-3,7.7-10.7-2-1.5,2.2-3.1,2,1.5,3.3-4.6,4.1,3-3.3,4.6,2,1.4-2.2,3.1Z"/>
        <path class="cls-2" fill="#fff" d="M208.9,77.3,200.2,68a3.8,3.8,0,0,0,.4,5.1,3.7,3.7,0,0,0,3.3,1.2l3.6,3.8a9.1,9.1,0,0,1-10-2,9.1,9.1,0,1,1,12.6.4Zm-1.4-10.8a3.8,3.8,0,0,0-4.8-.8l5.3,5.6A3.8,3.8,0,0,0,207.5,66.5Z"/>
        <path class="cls-2" fill="#fff" d="M212.7,97l1.6-.9h0c-2.1-.1-3.6-1.6-4.5-3.3-2.5-4.6-.5-9.4,3.9-11.9s9.5-1.4,12,3a6.6,6.6,0,0,1,.6,5.4l6.2-3.4,2.4,4.5-19.9,10.9Zm9.2-9.9a4.3,4.3,0,0,0-7.6,4.1,4.2,4.2,0,0,0,5.9,1.7A4.2,4.2,0,0,0,221.9,87.1Z"/>
        <path class="cls-2" fill="#fff" d="M220.5,127.5c-.2-1.7.3-4,1.9-5.1h0l-1.8.2-.5-4.9,22.6-2.2.5,5.1-7,.7a6.4,6.4,0,0,1,2.4,4.7,8.7,8.7,0,0,1-.5,3.7c-1.2,3.4-4.1,5.2-7.7,5.6C225.4,135.6,221,132.8,220.5,127.5Zm13.3-2a4.2,4.2,0,0,0-4.7-3.8,4.1,4.1,0,0,0-4,4.6,4.3,4.3,0,0,0,8.6-.8Z"/>
        <path class="cls-2" fill="#fff" d="M230,146.8l-9.3-1,.6-5.1,16.9,1.9-.5,4.8-1.8-.2h0a4.3,4.3,0,0,1,1.9,4.5l-5.1-.6C232.9,149,232.7,147.1,230,146.8Z"/>
        <path class="cls-2" fill="#fff" d="M216.7,161.4a9,9,0,1,1,5.8,11.5A8.9,8.9,0,0,1,216.7,161.4Zm12.7,4.1a4.3,4.3,0,1,0-5.3,2.6A4.2,4.2,0,0,0,229.4,165.5Z"/>
        <path class="cls-2" fill="#fff" d="M220.6,185.9l-11.5-6.4,2.5-4.4,11.5,6.4,1.2-2.2,3.4,1.9-1.2,2.2,5,2.8-2.5,4.4-5-2.8-1.2,2.1-3.4-1.9Z"/>
        <path class="cls-2" fill="#fff" d="M198.8,193.3l7,6c1.4,1.2,3,1.9,4.5.2s.8-3.1-.7-4.4l-7.2-6.2,3.3-3.9L223,200l-3.3,3.9-5.5-4.7h0a4.8,4.8,0,0,1-1.2,4.7,6.2,6.2,0,0,1-4.4,2.3c-2.5,0-4-1.3-5.8-2.8l-7.2-6.2Z"/>
        <path class="cls-2" fill="#fff" d="M181.9,216.2l10.4-7.4a3.8,3.8,0,0,0-5.1-.3,3.7,3.7,0,0,0-1.6,3.1l-4.2,3a9.1,9.1,0,0,1,3.4-9.6,9.1,9.1,0,1,1-2.1,12.4Zm10.9.1a3.8,3.8,0,0,0,1.5-4.6l-6.3,4.5A3.8,3.8,0,0,0,192.8,216.3Z"/>
        <path class="cls-2" fill="#fff" d="M172.5,223.1l-3.8-8.6,4.7-2.1,6.9,15.6-4.4,1.9-.7-1.7h-.1a4.3,4.3,0,0,1-2.9,3.9l-2.1-4.7C172.1,226.7,173.6,225.5,172.5,223.1Z"/>
        <path class="cls-2" fill="#fff" d="M136.9,221.5v1.8h.1c.8-1.8,3-2.6,4.8-2.7,5.2-.3,8.8,3.5,9.1,8.5s-2.8,9.3-7.9,9.6a5.7,5.7,0,0,1-5.1-2.1h-.1v1.8l-5.1.3-1.1-17ZM142,234a4.3,4.3,0,1,0-4.6-4A4.2,4.2,0,0,0,142,234Z"/>
        <path class="cls-2" fill="#fff" d="M116.2,218.8a6.6,6.6,0,0,1,4.6,3.1l1.5-7.1,5,1-4.6,22.2-4.7-1,.4-1.8h-.1a6.6,6.6,0,0,1-5.7,1.3c-5.2-1.1-7.3-5.9-6.3-10.8S111.3,217.8,116.2,218.8Zm-1.7,13.4a4.3,4.3,0,1,0-3.3-5.1A4.2,4.2,0,0,0,114.5,232.1Z"/>
        <path class="cls-2" fill="#fff" d="M95,211a6.6,6.6,0,0,1,3.6,4.2l3.3-6.4,4.5,2.3L96.2,231.3l-4.3-2.2.8-1.7h-.1a6.6,6.6,0,0,1-5.8-.2c-4.7-2.4-5.5-7.6-3.2-12S90.6,208.8,95,211Zm-5.1,12.5a4.3,4.3,0,1,0-1.8-5.8A4.2,4.2,0,0,0,89.9,223.5Z"/>
        <path class="cls-2" fill="#fff" d="M73.8,208.8l5.9-7.3,4,3.2L73,217.9l-3.7-3,1.1-1.4h0a4.3,4.3,0,0,1-4.8-.8l3.2-4C70.5,210,72.2,210.8,73.8,208.8Z"/>
        <path class="cls-2" fill="#fff" d="M68.7,189.7a9.1,9.1,0,1,1-14,11.5,9.1,9.1,0,1,1,14-11.5Zm-10.3,8.5a4.3,4.3,0,1,0,.7-5.9A4.2,4.2,0,0,0,58.5,198.2Z"/>
        <path class="cls-2" fill="#fff" d="M56.3,170.8l2.2,4.4-12.6,13-2.3-4.7,8.1-7.6h0l-11,1.8-2.3-4.7Z"/>
        <path class="cls-2" fill="#fff" d="M41.9,147.1l2.8,12.4a3.8,3.8,0,0,0,2.3-4.6,3.6,3.6,0,0,0-2.2-2.7l-1.2-5.1a9.1,9.1,0,0,1,7.6,6.8,9.1,9.1,0,1,1-10.6-6.7Zm-4.2,10a3.8,3.8,0,0,0,3.7,3.1l-1.7-7.5A3.8,3.8,0,0,0,37.7,157.1Z"/>
        <path class="cls-2" fill="#fff" d="M48.7,128.2H46.8c1.8,1.1,2.3,3.2,2.2,5.2-.2,5.2-4.4,8.4-9.4,8.2s-8.9-3.6-8.8-8.7a6.6,6.6,0,0,1,2.2-4.9l-7.1-.2.2-5.1,22.7.8Zm-13,3.8a4.3,4.3,0,0,0,8.6.3,4.2,4.2,0,0,0-4.2-4.5A4.2,4.2,0,0,0,35.7,132Z"/>
    </g>
</svg>