<svg width="164" height="179" viewBox="0 0 164 179" fill="none" xmlns="http://www.w3.org/2000/svg">
<path d="M81 168C124.078 168 159 133.078 159 90C159 46.9218 124.078 12 81 12C37.9218 12 3 46.9218 3 90C3 133.078 37.9218 168 81 168Z" fill="white"/>
<path d="M149.559 43.0841C140.338 29.7227 127.51 19.4788 112.481 13.4651L109.906 19.8797C123.668 25.3887 135.409 34.7618 143.862 47.0034C152.508 59.5284 157.077 74.2239 157.077 89.4931C157.077 108.198 150.141 126.114 137.534 139.939C125.918 152.678 110.411 160.973 93.5195 163.572L93.0972 155.588L82 167.913L94.3433 178.993L93.8933 170.512C112.612 167.795 129.815 158.678 142.657 144.591C156.42 129.494 164 109.926 164 89.4931C164 72.8207 159.009 56.7704 149.559 43.0841Z" fill="#231F20"/>
<path d="M70.4805 15.4143L70.9028 23.398L82 11.0734L69.6567 0L70.1067 8.48135C51.3876 11.1979 34.1846 20.3151 21.3428 34.4023C7.58041 49.4987 0 69.0673 0 89.5C0 122.195 19.4252 151.71 49.4838 164.685C51.2491 165.445 53.0698 166.157 54.8767 166.793L57.1681 160.268C55.5066 159.687 53.8521 159.037 52.2322 158.339C24.7073 146.457 6.92275 119.437 6.92275 89.5C6.92275 70.7954 13.8594 52.8788 26.4657 39.0543C38.0821 26.315 53.589 18.0203 70.4805 15.4143Z" fill="#231F20"/>
<path d="M61.4393 78.3436C65.2815 78.4196 69.1582 78.8136 72.8065 80.2721C74.5372 80.9634 76.2402 81.8412 77.7632 82.9126C80.5323 84.8619 83.066 84.9103 85.939 83.0094C94.454 77.369 103.689 77.3552 113.159 79.9818C115.16 80.5348 115.762 82.2629 114.239 83.7006C112.252 85.5807 112.169 87.9447 111.692 90.2949C111.325 92.1198 110.868 93.9584 110.21 95.7003C109.172 98.4445 106.956 99.8961 104.125 100.338C100.158 100.961 96.2054 100.843 92.3287 99.7163C88.9158 98.721 86.5412 96.6749 85.6344 93.1013C85.3505 91.9746 84.9767 90.841 84.4298 89.8249C83.2322 87.5991 80.7054 87.5646 79.4524 89.7558C78.9193 90.682 78.5455 91.7396 78.3101 92.7833C77.4586 96.5298 75.0356 98.6933 71.4773 99.7232C67.6006 100.843 63.6477 100.961 59.681 100.338C55.4166 99.6749 53.5197 96.6542 52.5921 92.8455C52.1213 90.9032 52.0175 88.8779 51.526 86.9425C51.2837 85.9955 50.5429 85.1798 50.0376 84.2951C49.6776 83.6591 49.2276 83.0439 49.0199 82.3596C48.6669 81.1776 49.1307 80.4449 50.3906 80.0302C53.9628 78.8551 57.6318 78.3851 61.4393 78.3436Z" fill="#231F20"/>
<g clip-path="url(#clip0-seal_replacements)">
<path d="M35.5157 63.3408L34.5282 62.832L34.511 62.8665C35.2667 63.8754 35.0949 64.9189 34.5625 65.9623C34.0387 66.9885 33.1456 67.8508 31.9777 68.1009C30.6466 68.3769 29.8308 68.0578 28.6715 67.4628L23.0981 64.5826L24.5323 61.7799L29.6848 64.4446C30.7411 64.9879 31.6685 65.1689 32.3212 63.9099C32.9137 62.7458 32.3212 61.8834 31.2477 61.3315L26.121 58.6841L27.5551 55.8815L36.8811 60.6934L35.5157 63.3408Z" fill="#231F20"/>
<path d="M42.832 53.2514L38.5039 49.4915C37.6193 48.724 36.7091 48.2325 35.7816 49.3104C34.8284 50.4142 35.3179 51.2938 36.2625 52.1131L40.582 55.8643L38.5296 58.2443L30.5947 51.3542L32.5097 49.1293L33.3513 49.8623L33.3771 49.8365C32.9992 48.6292 33.2998 47.6634 34.1328 46.6975C34.7167 46.0249 35.7043 45.3954 36.5717 45.2574C37.8598 45.0418 38.9933 45.7576 39.9208 46.5596L44.8844 50.8627L42.832 53.2514Z" fill="#231F20"/>
<path d="M47.4009 48.8361L38.6416 37.9016L41.089 35.9268L49.8483 46.8614L47.4009 48.8361Z" fill="#231F20"/>
<path d="M46.6366 34.9007L45.3828 32.8655L48.0535 31.2098L49.3073 33.245L46.6366 34.9007ZM52.7337 44.809L47.2205 35.8493L49.8913 34.1936L55.4045 43.1533L52.7337 44.809Z" fill="#231F20"/>
<path d="M70.0891 37.1255L68.3458 31.8049C67.9852 30.7011 67.4699 29.6317 66.0959 30.0888C64.7648 30.5286 64.7562 31.572 65.1255 32.7103L66.9203 38.169L63.9404 39.152L62.1456 33.7279C61.8107 32.7017 61.2268 31.7186 59.973 32.1325C58.5904 32.5896 58.6333 33.7365 59.0112 34.9093L60.7545 40.23L57.7746 41.213L54.4941 31.2098L57.2765 30.2871L57.6286 31.3478L57.6629 31.3392C57.9034 30.1233 58.8137 29.3989 59.9472 29.0281C61.2439 28.5969 62.4204 28.9246 63.408 29.8646C63.7515 28.4935 64.636 27.4759 65.9843 27.0361C66.9718 26.7084 68.0023 26.6912 68.9384 27.1741C70.4498 27.9502 70.7847 29.1575 71.2914 30.6924L73.0862 36.1511L70.0891 37.1255Z" fill="#231F20"/>
<path d="M75.1469 24.7078L74.958 22.3277L78.0839 22.0776L78.2728 24.4577L75.1469 24.7078ZM76.083 36.3235L75.2414 25.8202L78.3673 25.5701L79.2088 36.0648L76.083 36.3235Z" fill="#231F20"/>
<path d="M86.9634 28.0709L86.5083 36.1942L83.3738 36.0131L83.829 27.8898L82.2832 27.8036L82.4206 25.4149L83.9664 25.5011L84.1639 22L87.2983 22.1811L87.1008 25.6822L88.6122 25.7684L88.4748 28.1571L86.9634 28.0709Z" fill="#231F20"/>
<path d="M101.176 34.7282L93.5418 32.831C93.4216 34.0901 94.2546 35.0645 95.4483 35.3577C96.2727 35.5647 96.891 35.3663 97.535 34.8576L100.652 35.6337C99.2697 37.4618 97.1057 38.5053 94.8128 37.9361C91.8415 37.2031 90.0209 34.1677 90.7509 31.184C91.4808 28.2175 94.4521 26.2772 97.4406 27.0188C100.558 27.795 102.198 30.8563 101.442 33.9348C101.382 34.2194 101.296 34.4695 101.176 34.7282ZM96.8309 29.6059C95.7317 29.3299 94.5981 29.7352 94.0914 30.7787L98.7115 31.9256C98.7459 30.77 97.9301 29.8818 96.8309 29.6059Z" fill="#231F20"/>
<path d="M109.42 43.5672L109.961 42.5669L109.927 42.5497C108.819 43.2223 107.548 42.9463 106.466 42.3599C103.641 40.8336 103.031 37.6429 104.499 34.9007C105.942 32.2101 108.939 30.9425 111.713 32.443C112.778 33.0207 113.499 33.84 113.834 35.0128L115.912 31.1408L118.669 32.6327L112.048 44.9901L109.42 43.5672ZM110.863 35.3232C109.532 34.6075 107.994 35.0214 107.273 36.3753C106.552 37.7291 106.921 39.2641 108.304 40.0144C109.686 40.7646 111.215 40.2731 111.945 38.9019C112.657 37.5653 112.194 36.039 110.863 35.3232Z" fill="#231F20"/>
<path d="M126.123 50.1297L121.864 54.0275L119.751 51.6991L127.497 44.6021L129.481 46.7924L128.656 47.5513L128.682 47.5771C129.85 47.2581 130.726 47.6289 131.542 48.5257L129.214 50.6643C128.253 49.664 127.317 49.0259 126.123 50.1297Z" fill="#231F20"/>
<path d="M133.955 64.0651L129.858 57.3302C128.897 58.1408 128.802 59.4171 129.446 60.4778C129.893 61.2022 130.468 61.4954 131.275 61.5988L132.95 64.3497C130.691 64.6688 128.416 63.8841 127.188 61.8575C125.59 59.236 126.423 55.7953 129.034 54.1913C131.627 52.596 135.097 53.3203 136.703 55.9591C138.377 58.71 137.398 62.0473 134.702 63.703C134.461 63.8409 134.229 63.9703 133.955 64.0651ZM134.461 57.3561C133.869 56.3817 132.787 55.8729 131.688 56.2523L134.169 60.3312C135.002 59.5292 135.045 58.3306 134.461 57.3561Z" fill="#231F20"/>
<path d="M132.821 74.7065C132.452 73.5078 132.503 72.3868 133.139 71.2916L128.896 72.6024L127.978 69.5928L141.34 65.4622L142.207 68.2906L141.108 68.6356L141.116 68.6528L141.125 68.6873C142.336 69.1702 143.152 70.1447 143.53 71.3778C144.483 74.4995 142.49 77.0779 139.579 77.9748C136.78 78.8457 133.723 77.6385 132.821 74.7065ZM140.533 71.6279C140.086 70.1792 138.626 69.4548 137.192 69.9032C135.784 70.3344 134.976 71.7745 135.414 73.2146C135.852 74.6461 137.321 75.3791 138.729 74.9479C140.172 74.4995 140.979 73.0767 140.533 71.6279Z" fill="#231F20"/>
<path d="M134.771 82.0709L148.665 80.5532L149.009 83.6835L135.114 85.2012L134.771 82.0709Z" fill="#231F20"/>
<path d="M134.865 96.2651L135.999 96.36V96.3255C134.977 95.6701 134.676 94.2731 134.771 93.1348C135.045 89.901 137.699 88.0728 140.808 88.3315C143.856 88.5902 146.201 90.9186 145.943 94.0747C145.849 95.2303 145.308 96.4807 144.217 97.0153V97.0498L145.325 97.1447L145.058 100.284L134.607 99.404L134.865 96.2651ZM142.972 94.2903C143.101 92.7554 141.984 91.5998 140.498 91.4705C139.047 91.3497 137.768 92.3846 137.647 93.8592C137.519 95.3941 138.592 96.5842 140.103 96.7135C141.623 96.8429 142.843 95.8167 142.972 94.2903Z" fill="#231F20"/>
<path d="M131.954 107.01C132.984 104.035 136.127 102.5 139.09 103.535C142.018 104.552 143.564 107.665 142.542 110.614C141.666 113.158 139.262 114.797 136.565 114.435L137.604 111.425C138.678 111.322 139.408 110.709 139.76 109.683C140.258 108.252 139.373 106.975 138.034 106.51C136.643 106.027 135.2 106.544 134.702 108.002C134.358 108.985 134.582 109.864 135.277 110.614L134.229 113.641C132.014 112.227 131.086 109.519 131.954 107.01Z" fill="#231F20"/>
<path d="M127.282 125.55L131.568 118.936C130.417 118.41 129.24 118.884 128.562 119.919C128.098 120.635 128.081 121.282 128.347 122.066L126.595 124.766C125.333 122.851 125.067 120.454 126.355 118.47C128.021 115.892 131.473 115.168 134.041 116.841C136.591 118.505 137.433 121.963 135.758 124.55C134.006 127.249 130.589 127.801 127.944 126.068C127.695 125.912 127.488 125.749 127.282 125.55ZM133.525 123.118C134.144 122.161 134.135 120.963 133.319 120.135L130.717 124.136C131.808 124.55 132.907 124.067 133.525 123.118Z" fill="#231F20"/>
<path d="M112.563 133.536L116.161 137.813C116.908 138.701 117.776 139.503 118.892 138.554C119.965 137.649 119.588 136.675 118.823 135.76L115.131 131.363L117.527 129.336L121.202 133.717C121.898 134.545 122.799 135.243 123.813 134.381C124.929 133.441 124.465 132.389 123.675 131.449L120.077 127.172L122.473 125.145L129.231 133.199L126.99 135.096L126.269 134.243L126.243 134.269C126.475 135.485 125.891 136.502 124.981 137.27C123.942 138.149 122.722 138.287 121.46 137.787C121.649 139.193 121.202 140.46 120.12 141.374C119.321 142.047 118.377 142.452 117.329 142.349C115.637 142.194 114.882 141.193 113.843 139.96L110.15 135.562L112.563 133.536Z" fill="#231F20"/>
<path d="M99.8363 144.686L107.05 141.547C106.38 140.469 105.135 140.21 104.01 140.702C103.228 141.038 102.859 141.573 102.653 142.366L99.7075 143.651C99.7075 141.357 100.798 139.21 102.962 138.261C105.77 137.037 109.051 138.339 110.27 141.159C111.481 143.961 110.287 147.316 107.462 148.54C104.517 149.825 101.365 148.385 100.103 145.479C99.9823 145.22 99.8964 144.97 99.8363 144.686ZM106.38 146.117C107.419 145.66 108.08 144.651 107.849 143.513L103.477 145.41C104.156 146.359 105.341 146.574 106.38 146.117Z" fill="#231F20"/>
<path d="M89.2395 142.487L90.2013 148.152C90.3988 149.308 90.7852 150.265 92.185 150.024C93.6191 149.782 93.7995 148.79 93.5848 147.549L92.6315 141.9L95.7231 141.374L97.4835 151.757L94.5981 152.248L94.4092 151.145L94.3748 151.153C93.9025 152.335 93.0609 152.878 91.8071 153.094C90.9312 153.24 89.7719 153.094 89.0076 152.645C87.8826 151.99 87.4533 150.714 87.2472 149.498L86.1479 143.004L89.2395 142.487Z" fill="#231F20"/>
<path d="M79.0285 151.024L79.2261 142.883L82.3605 142.961L82.163 151.102L83.7088 151.136L83.6486 153.525L82.1029 153.49L82.017 157L78.8826 156.922L78.9684 153.413L77.457 153.378L77.5171 150.989L79.0285 151.024Z" fill="#231F20"/>
<path d="M71.8493 141.581C74.0048 142.004 75.5763 143.504 75.3788 145.824L72.3216 145.229C72.3474 144.574 71.9523 144.168 71.334 144.048C70.8703 143.953 70.2091 144.099 70.106 144.634C69.96 145.376 70.7501 145.764 71.2653 146.1C71.6861 146.333 72.0983 146.574 72.5105 146.824C73.6441 147.514 74.7175 148.549 74.4341 150.006C74.0134 152.171 71.772 153.025 69.7883 152.637C67.7273 152.231 66.2502 150.843 66.4735 148.601L69.4963 149.196C69.4018 149.774 69.7711 150.058 70.3121 150.17C70.7243 150.248 71.231 150.118 71.3169 149.653C71.6346 148.032 66.276 147.937 66.9887 144.28C67.4267 141.952 69.7539 141.176 71.8493 141.581Z" fill="#231F20"/>
<path d="M51.892 143.177L55.7049 135.993L58.47 137.477L54.6572 144.66L55.6877 145.212L54.5713 147.324L53.5408 146.773L53.2832 147.255C52.0809 149.515 50.1745 149.248 48.2337 148.204L47.8301 147.988L48.9379 145.893C49.934 146.428 50.2088 146.316 50.7584 145.281L49.5905 144.66L50.7155 142.547L51.892 143.177Z" fill="#231F20"/>
<path d="M48.7746 130.828C51.2736 132.854 51.6772 136.235 49.6591 138.744C47.641 141.254 44.2575 141.555 41.7672 139.52C39.2682 137.494 38.8646 134.113 40.8826 131.604C42.9007 129.103 46.2756 128.801 48.7746 130.828ZM43.6049 137.244C44.7384 138.166 46.3271 137.873 47.2202 136.769C48.1133 135.666 48.0618 134.036 46.9283 133.122C45.7947 132.199 44.206 132.492 43.3129 133.596C42.4198 134.7 42.4713 136.321 43.6049 137.244Z" fill="#231F20"/>
<path d="M36.0908 126.68L40.5219 122.989L42.5228 125.412L34.4505 132.139L32.5699 129.862L33.4286 129.146L33.4029 129.12C32.2264 129.388 31.3676 128.974 30.5947 128.034L33.025 126.007C33.9353 127.042 34.837 127.715 36.0908 126.68Z" fill="#231F20"/>
<path d="M34.0899 112.813L21.3374 118.583L20.0493 115.711L32.7932 109.942L34.0899 112.813Z" fill="#231F20"/>
<path d="M20.4704 110.054L18.1947 110.752L17.2759 107.743L19.5516 107.044L20.4704 110.054ZM31.557 106.639L21.5353 109.726L20.6164 106.717L30.6381 103.63L31.557 106.639Z" fill="#231F20"/>
<path d="M21.2775 98.3261L29.2725 96.9722L29.7963 100.077L21.8013 101.431L21.9988 102.595L19.6544 102.991L19.4569 101.827L18.9159 101.922C16.3998 102.345 15.4466 100.663 15.0859 98.4899L15 98.0415L17.3272 97.6449C17.5161 98.7659 17.7738 98.9211 18.9245 98.7228L18.7012 97.412L21.0456 97.0153L21.2775 98.3261Z" fill="#231F20"/>
<path d="M24.6096 82.9419L24.4465 90.8323C25.7002 90.6685 26.456 89.6423 26.4817 88.4091C26.4989 87.5554 26.1726 86.9949 25.5371 86.4689L25.6058 83.2437C27.684 84.2009 29.1782 86.0894 29.1267 88.4609C29.0666 91.5308 26.5161 93.9885 23.4589 93.9195C20.4189 93.8592 17.877 91.3756 17.9457 88.2798C18.0144 85.0546 20.625 82.778 23.7852 82.8384C24.06 82.8556 24.3262 82.8815 24.6096 82.9419ZM20.5907 88.3229C20.5649 89.4612 21.209 90.4788 22.3339 90.7461L22.4284 85.9687C21.2948 86.1929 20.6078 87.1846 20.5907 88.3229Z" fill="#231F20"/>
</g>
<defs>
<clipPath id="clip0-seal_replacements">
<rect width="134" height="135" fill="white" transform="translate(15 22)"/>
</clipPath>
</defs>
</svg>
