<?xml version="1.0" encoding="utf-8"?>
<!-- Generator: Adobe Illustrator 16.0.0, SVG Export Plug-In . SVG Version: 6.00 Build 0)  -->
<!DOCTYPE svg PUBLIC "-//W3C//DTD SVG 1.1//EN" "http://www.w3.org/Graphics/SVG/1.1/DTD/svg11.dtd">
<svg version="1.1" id="Layer_1" xmlns="http://www.w3.org/2000/svg" xmlns:xlink="http://www.w3.org/1999/xlink" x="0px" y="0px"
	 width="196.442px" height="200.729px" viewBox="0 0 196.442 200.729" enable-background="new 0 0 196.442 200.729"
	 xml:space="preserve">
<g>
	<path fill="none" d="M98.228,14.288c31.435,0,59.234,15.56,76.12,39.397C159.012,27.571,130.633,10,98.222,10
		c-32.465,0-60.887,17.63-76.205,43.816C38.894,29.906,66.735,14.288,98.228,14.288z"/>
	<path fill="#FFFFFF" d="M98.222,196.442c-33.505,0-63.14-16.867-80.875-42.552c16.085,27.99,46.282,46.839,80.881,46.839
		c34.641,0,64.866-18.894,80.938-46.938C161.438,179.532,131.77,196.442,98.222,196.442z"/>
	<path fill="#FFFFFF" d="M30,99.566c0.924,0.027,1.684-0.244,2.28-0.813c0.596-0.569,0.907-1.286,0.933-2.151
		c0.026-0.894-0.259-1.657-0.857-2.292c-0.598-0.634-1.344-0.941-2.24-0.925c-0.865-0.025-1.592,0.254-2.181,0.839
		c-0.589,0.555-0.896,1.272-0.922,2.151c-0.029,0.982,0.26,1.753,0.867,2.314c0.607,0.562,1.307,0.853,2.099,0.876L30,99.566z"/>
	<path fill="#FFFFFF" d="M113.716,28.365c-0.816-0.18-1.497-0.106-2.044,0.224s-0.893,0.689-1.039,1.077l5.328,1.179
		c0.031-0.413-0.131-0.885-0.486-1.414C115.119,28.9,114.532,28.545,113.716,28.365z"/>
	<path fill="#FFFFFF" d="M85.012,161.83c-0.891-0.181-1.675-0.022-2.353,0.477c-0.676,0.499-1.096,1.151-1.259,1.956l-0.004,0.021
		c-0.157,0.776-0.031,1.531,0.383,2.267c0.412,0.734,1.077,1.194,1.997,1.381c0.862,0.175,1.643,0.019,2.34-0.469
		c0.681-0.476,1.107-1.145,1.282-2.008c0.172-0.848,0.029-1.617-0.43-2.309C86.498,162.437,85.846,161.999,85.012,161.83z"/>
	<path fill="#FFFFFF" d="M105.37,163.858c-0.564-0.631-1.338-0.911-2.317-0.844c-1.142,0.078-1.959,0.59-2.453,1.535
		c-0.261,0.475-0.395,1.006-0.397,1.594c-0.007,0.544,0.133,1.072,0.418,1.581c0.604,1.091,1.564,1.591,2.882,1.499
		c0.965-0.066,1.687-0.442,2.16-1.129c0.475-0.688,0.684-1.426,0.63-2.217l-0.002-0.021
		C106.242,165.155,105.936,164.488,105.37,163.858z"/>
	<path fill="#FFFFFF" d="M28.697,112.321c-0.324,0.549-0.392,1.231-0.203,2.046c0.189,0.813,0.55,1.397,1.083,1.748
		c0.534,0.351,1.006,0.509,1.42,0.473l-1.232-5.314C29.377,111.422,29.022,111.771,28.697,112.321z"/>
	<path fill="#FFFFFF" d="M46.24,138.79c-0.816-0.064-1.563,0.184-2.24,0.747c-0.676,0.563-1.056,1.252-1.142,2.067
		c-0.085,0.814,0.131,1.532,0.646,2.151c0.516,0.62,1.183,0.962,2,1.026c0.817,0.064,1.563-0.185,2.239-0.748l0.018-0.014
		c0.665-0.554,1.04-1.237,1.125-2.053c0.085-0.814-0.131-1.532-0.647-2.152C47.724,139.196,47.057,138.853,46.24,138.79z"/>
	<path fill="#FFFFFF" d="M136.469,156.394c0.287,0.3,0.746,0.495,1.377,0.585c0.633,0.089,1.289-0.11,1.969-0.596
		c0.68-0.486,1.08-1.043,1.199-1.67c0.12-0.627,0.085-1.125-0.107-1.493L136.469,156.394z"/>
	<path fill="#FFFFFF" d="M68.887,156.213c-0.812-0.406-1.611-0.459-2.396-0.154c-0.784,0.305-1.359,0.824-1.728,1.559l-0.01,0.02
		c-0.355,0.709-0.43,1.471-0.223,2.287c0.206,0.817,0.728,1.436,1.567,1.855c0.787,0.395,1.58,0.448,2.38,0.16
		c0.781-0.281,1.368-0.815,1.762-1.603c0.388-0.773,0.451-1.555,0.189-2.341C70.162,157.189,69.647,156.595,68.887,156.213z"/>
	<path fill="#FFFFFF" d="M158.589,62.185c-0.808-0.175-1.558-0.07-2.251,0.312l-0.02,0.011c-0.81,0.446-1.326,1.065-1.551,1.858
		c-0.226,0.793-0.128,1.569,0.29,2.327c0.432,0.783,1.065,1.296,1.902,1.538c0.837,0.243,1.636,0.129,2.399-0.342
		c0.758-0.417,1.242-1.027,1.452-1.83c0.226-0.777,0.126-1.551-0.3-2.321C160.038,62.877,159.396,62.36,158.589,62.185z"/>
	<path fill="#FFFFFF" d="M150.994,50.875c0.002-0.638-0.284-1.261-0.858-1.868s-1.181-0.929-1.817-0.962
		c-0.638-0.033-1.125,0.069-1.465,0.309l3.748,3.965C150.86,51.995,150.99,51.514,150.994,50.875z"/>
	<path fill="#FFFFFF" d="M98.228,14.288c-31.492,0-59.334,15.618-76.211,39.529C14.383,66.867,10,82.041,10,98.221
		c0,48.645,39.576,88.221,88.222,88.221s88.221-39.576,88.221-88.221c0-16.235-4.413-31.456-12.095-44.536
		C157.462,29.848,129.662,14.288,98.228,14.288z M152.358,46.875c1.279,1.354,1.868,2.916,1.767,4.688
		c-0.132,2.102-1.156,3.857-3.074,5.267l-6.241-6.603c-0.419,0.496-0.588,1.074-0.508,1.736c0.079,0.66,0.372,1.258,0.876,1.791
		c0.654,0.692,1.441,0.969,2.357,0.828l2.569,2.719c-1.384,0.5-2.71,0.613-3.979,0.338c-1.237-0.241-2.301-0.832-3.187-1.77
		c-1.209-1.279-1.797-2.812-1.762-4.602s0.709-3.303,2.02-4.541c1.268-1.199,2.8-1.805,4.596-1.816
		C149.587,44.899,151.109,45.553,152.358,46.875z M138.263,35.625l1.47,1.047l2.361-3.314l2.975,2.119l-2.362,3.314l1.433,1.021
		l-1.607,2.258l-1.434-1.021l-5.477,7.686l-2.975-2.119l5.477-7.686l-1.469-1.047L138.263,35.625z M96.375,23.926l1.804,0.046
		l0.104-4.068l3.65,0.093l-0.104,4.068l1.76,0.045l-0.07,2.771l-1.76-0.045l-0.242,9.435l-3.65-0.093l0.241-9.435l-1.804-0.046
		L96.375,23.926z M70.254,30.709c0.762-1.492,1.921-2.499,3.479-3.021c1.349-0.452,2.637-0.372,3.861,0.239l-0.419-1.252
		l-1.201-3.588l3.463-1.16l5.168,15.438l-3.297,1.104l-0.419-1.251c-0.388,1.336-1.374,2.269-2.959,2.8
		c-1.726,0.577-3.321,0.454-4.787-0.37c-1.467-0.823-2.496-2.118-3.087-3.884C69.427,33.886,69.493,32.202,70.254,30.709z
		 M55.972,37.153l0.707,1.088c0.016-0.272,0.034-0.499,0.057-0.68c0.023-0.181,0.09-0.434,0.201-0.76
		c0.113-0.326,0.305-0.643,0.577-0.951c0.272-0.309,0.623-0.602,1.054-0.881c0.652-0.423,1.293-0.689,1.92-0.8
		c0.629-0.11,1.167-0.102,1.617,0.026s0.885,0.348,1.307,0.66c0.422,0.313,0.75,0.61,0.986,0.894
		c0.237,0.284,0.467,0.598,0.691,0.942l4.155,6.403l-3.063,1.988l-3.629-5.591c-0.432-0.665-0.879-1.112-1.344-1.344
		c-0.466-0.231-1.012-0.143-1.639,0.265c-0.689,0.447-1.026,0.945-1.01,1.494c0.016,0.55,0.23,1.145,0.646,1.784l3.617,5.573
		l-3.063,1.988l-6.646-10.242L55.972,37.153z M56.717,52.103l-2.644,2.519l-8.424-8.839l2.644-2.519L56.717,52.103z M45.485,40.317
		l1.913,2.007l-2.645,2.519l-1.912-2.007L45.485,40.317z M38.375,47.687l12.67,10.222l-2.293,2.842l-12.67-10.222L38.375,47.687z
		 M27.674,64.111l3.642,1.915l0.817,0.43c-0.415-1.196-0.274-2.456,0.422-3.78c0.313-0.598,0.738-1.137,1.273-1.618
		c0.534-0.479,1.157-0.878,1.869-1.191s1.54-0.437,2.483-0.372c0.942,0.065,1.901,0.354,2.875,0.866
		c1.844,0.97,2.994,2.262,3.453,3.879c0.459,1.617,0.3,3.165-0.479,4.644c-0.376,0.715-0.861,1.275-1.457,1.682
		c-0.596,0.409-1.166,0.626-1.711,0.654l1.148,0.604l-1.628,3.096l-14.408-7.578L27.674,64.111z M23.583,96.978
		c0.042-1.423,0.561-2.603,1.557-3.542l-1.32-0.039l-3.782-0.111l0.108-3.65l16.272,0.479l-0.103,3.475l-1.319-0.039
		c1.12,0.826,1.656,2.074,1.606,3.745c-0.054,1.818-0.72,3.272-2,4.365c-1.279,1.092-2.85,1.61-4.712,1.556
		c-1.979-0.059-3.537-0.703-4.675-1.932C24.08,100.055,23.535,98.62,23.583,96.978z M25.499,115.084
		c-0.421-1.814-0.14-3.461,0.843-4.938c1.175-1.748,2.946-2.746,5.313-2.993l2.052,8.852c0.612-0.218,1.05-0.632,1.315-1.243
		c0.265-0.609,0.314-1.273,0.149-1.987c-0.215-0.929-0.754-1.564-1.617-1.905l-0.845-3.644c1.448,0.266,2.649,0.839,3.605,1.716
		c0.946,0.835,1.565,1.881,1.857,3.138c0.397,1.714,0.129,3.335-0.804,4.86c-0.933,1.527-2.278,2.493-4.036,2.901
		c-1.7,0.394-3.328,0.143-4.883-0.755C26.893,118.19,25.91,116.856,25.499,115.084z M34.421,136.609l-1.682-3.39l5.773-5.491
		l-7.865,1.273l-1.681-3.39l12.893-1.484l1.555,3.133L34.421,136.609z M45.69,148.392c-0.824,0.009-1.659-0.193-2.506-0.604
		c-0.848-0.411-1.614-1.028-2.299-1.852c-0.685-0.822-1.152-1.688-1.402-2.596c-0.25-0.909-0.297-1.766-0.14-2.575
		c0.157-0.809,0.435-1.559,0.831-2.25c0.396-0.693,0.894-1.289,1.491-1.785c0.598-0.498,1.272-0.879,2.026-1.143
		c0.753-0.266,1.541-0.402,2.364-0.41c0.824-0.007,1.659,0.193,2.507,0.604c0.847,0.411,1.614,1.028,2.299,1.851
		c0.686,0.824,1.152,1.689,1.403,2.597c0.25,0.908,0.297,1.767,0.139,2.574c-0.157,0.81-0.434,1.56-0.831,2.252
		c-0.396,0.693-0.893,1.288-1.491,1.785l-0.017,0.015c-0.586,0.487-1.255,0.863-2.009,1.128
		C47.302,148.249,46.514,148.385,45.69,148.392z M51.305,155.714l0.853-1.064c-0.238,0.11-0.45,0.185-0.633,0.226
		c-0.183,0.041-0.435,0.075-0.756,0.1c-0.32,0.025-0.661-0.035-1.021-0.184c-0.361-0.148-0.736-0.377-1.125-0.689l2.296-2.868
		l0.103,0.083c0.745,0.596,1.405,0.885,1.982,0.867c0.578-0.016,1.132-0.357,1.664-1.021l4.098-5.117l2.851,2.283l-7.631,9.531
		L51.305,155.714z M67.551,165.854l0.601-1.199c-1.43,0.596-2.847,0.542-4.25-0.16c-0.917-0.46-1.64-1.057-2.168-1.788
		c-0.527-0.731-0.843-1.501-0.947-2.309c-0.104-0.807-0.088-1.594,0.051-2.36c0.139-0.768,0.375-1.485,0.71-2.154
		c0.802-1.6,1.981-2.702,3.54-3.308c1.558-0.605,3.104-0.524,4.639,0.245c1.324,0.663,2.192,1.664,2.604,3.003l0.493-0.983
		l1.823-3.639l3.265,1.636l-7.292,14.555L67.551,165.854z M89.607,172.166l-3.363-0.682l0.266-1.315
		c-1.225,0.949-2.607,1.268-4.145,0.956c-1.006-0.204-1.859-0.59-2.561-1.158c-0.699-0.568-1.206-1.229-1.517-1.98
		c-0.311-0.751-0.501-1.516-0.568-2.292c-0.066-0.777-0.026-1.531,0.123-2.266c0.355-1.754,1.207-3.126,2.552-4.117
		c1.345-0.992,2.859-1.317,4.542-0.977c1.452,0.294,2.552,1.033,3.299,2.218l0.219-1.078l0.808-3.989l3.579,0.726L89.607,172.166z
		 M108.463,170.492c-1.117,1.282-2.518,1.981-4.2,2.098c-0.906,0.062-1.673-0.058-2.297-0.36c-0.623-0.303-1.097-0.67-1.421-1.104
		l0.089,1.295l-3.643,0.251l-0.838-12.181l3.643-0.252l0.09,1.316c0.269-0.591,0.726-1.057,1.371-1.395
		c0.646-0.338,1.349-0.533,2.109-0.586c1.858-0.128,3.388,0.402,4.587,1.591c1.198,1.189,1.861,2.691,1.986,4.506
		C110.072,167.602,109.579,169.209,108.463,170.492z M118.863,34.326l-8.871-1.963c-0.068,0.646,0.117,1.221,0.555,1.723
		c0.436,0.502,1.013,0.832,1.729,0.991c0.931,0.205,1.737-0.007,2.416-0.638l3.652,0.808c-0.864,1.191-1.899,2.029-3.103,2.514
		c-1.16,0.494-2.371,0.603-3.631,0.323c-1.719-0.38-3.066-1.32-4.041-2.82s-1.268-3.131-0.878-4.892
		c0.378-1.704,1.306-3.065,2.784-4.083c1.479-1.016,3.107-1.328,4.883-0.936c1.818,0.402,3.182,1.365,4.093,2.888
		C119.523,30.055,119.66,32.083,118.863,34.326z M127.731,166.281l-0.556-1.245c-0.012,0.262-0.042,0.484-0.089,0.666
		c-0.048,0.182-0.133,0.421-0.259,0.718c-0.124,0.297-0.334,0.571-0.631,0.824c-0.296,0.253-0.672,0.481-1.127,0.685l-1.5-3.354
		l0.121-0.055c0.871-0.389,1.43-0.844,1.679-1.364c0.249-0.521,0.2-1.171-0.146-1.946l-2.675-5.986l3.334-1.49l4.981,11.148
		L127.731,166.281z M130.896,40.815c-0.559,1.18-1.433,1.914-2.624,2.202c-1.192,0.288-2.423,0.131-3.696-0.472
		c-0.463-0.22-0.897-0.494-1.301-0.823c-0.404-0.329-0.773-0.731-1.109-1.206c-0.334-0.475-0.543-1.039-0.621-1.693
		c-0.08-0.654,0.01-1.342,0.27-2.062l3.281,1.553c-0.228,0.72,0.03,1.256,0.772,1.606c0.305,0.145,0.61,0.192,0.918,0.143
		c0.308-0.049,0.521-0.199,0.641-0.451c0.05-0.106,0.081-0.208,0.097-0.308c0.014-0.099-0.005-0.204-0.057-0.318
		c-0.052-0.113-0.111-0.219-0.179-0.316c-0.067-0.096-0.176-0.229-0.323-0.396c-0.148-0.168-0.289-0.314-0.424-0.443
		c-0.133-0.128-0.322-0.319-0.567-0.573c-0.245-0.253-0.473-0.487-0.68-0.698c-0.663-0.623-1.122-1.29-1.376-2.003
		c-0.256-0.713-0.217-1.421,0.115-2.123c0.527-1.114,1.371-1.817,2.533-2.111s2.332-0.162,3.512,0.396
		c0.424,0.2,0.818,0.448,1.183,0.741c0.363,0.295,0.717,0.664,1.057,1.109c0.341,0.445,0.55,0.982,0.626,1.609
		c0.075,0.63-0.017,1.304-0.277,2.024l-3.24-1.534c0.03-0.099,0.055-0.185,0.072-0.258c0.019-0.072,0.023-0.176,0.014-0.311
		c-0.009-0.134-0.076-0.268-0.2-0.398c-0.125-0.132-0.3-0.251-0.524-0.357c-0.318-0.151-0.59-0.186-0.814-0.105
		s-0.381,0.213-0.469,0.398c-0.188,0.398,0.202,1.029,1.173,1.894c0.44,0.371,0.77,0.661,0.987,0.87
		c0.219,0.208,0.483,0.504,0.798,0.888c0.312,0.384,0.521,0.733,0.622,1.05c0.102,0.314,0.151,0.691,0.148,1.128
		C131.228,39.901,131.116,40.351,130.896,40.815z M144.191,154.618c-0.232,1.78-1.088,3.199-2.567,4.258
		c-1.517,1.083-3.144,1.453-4.884,1.112c-2.066-0.417-3.666-1.671-4.801-3.763l7.391-5.285c-0.435-0.482-0.985-0.729-1.65-0.738
		c-0.666-0.012-1.297,0.196-1.895,0.623c-0.775,0.555-1.156,1.296-1.141,2.223l-3.043,2.176c-0.308-1.439-0.238-2.769,0.205-3.987
		c0.408-1.193,1.139-2.166,2.188-2.917c1.432-1.023,3.031-1.396,4.799-1.118c1.767,0.277,3.175,1.15,4.225,2.618
		C144.032,151.239,144.424,152.838,144.191,154.618z M159.078,147.442l-2.777-2.369l-1.172-1c0.381,1.135,0.082,2.277-0.898,3.427
		c-1.114,1.306-2.341,1.849-3.68,1.633c-1.041-0.157-2.255-0.825-3.639-2.006l-5.188-4.427l2.371-2.778l5.054,4.312
		c0.603,0.515,1.135,0.806,1.599,0.872c0.608,0.077,1.147-0.158,1.613-0.705c0.572-0.67,0.706-1.335,0.404-1.998
		c-0.154-0.363-0.459-0.739-0.917-1.129l-5.154-4.398l2.37-2.777l12.385,10.566L159.078,147.442z M165.698,137.896l-3.556-1.98
		l-0.855,1.537l-2.422-1.35l0.856-1.537l-8.244-4.595l1.778-3.189l8.244,4.594l0.877-1.576l2.422,1.35l-0.878,1.576l3.556,1.98
		L165.698,137.896z M169.248,120.958c-0.325,1.02-0.804,1.88-1.435,2.578c-0.631,0.7-1.329,1.201-2.096,1.503
		s-1.548,0.473-2.345,0.51c-0.798,0.04-1.566-0.061-2.307-0.296c-0.741-0.236-1.425-0.601-2.053-1.094
		c-0.628-0.492-1.167-1.084-1.617-1.773c-0.449-0.69-0.729-1.502-0.838-2.438c-0.11-0.935-0.003-1.913,0.322-2.934
		c0.326-1.021,0.805-1.879,1.436-2.579c0.63-0.699,1.328-1.2,2.095-1.501c0.767-0.304,1.548-0.474,2.345-0.511
		c0.798-0.04,1.566,0.061,2.308,0.297l0.021,0.006c0.727,0.232,1.404,0.594,2.031,1.087c0.629,0.492,1.168,1.083,1.617,1.774
		c0.449,0.689,0.729,1.502,0.839,2.437C169.681,118.959,169.573,119.936,169.248,120.958z M171.053,107.219
		c0.133,0.132,0.296,0.326,0.489,0.585c0.193,0.256,0.324,0.577,0.393,0.96c0.068,0.384,0.076,0.823,0.021,1.319l-3.652-0.399
		l0.015-0.131c0.104-0.947-0.006-1.66-0.33-2.138c-0.324-0.479-0.909-0.764-1.755-0.856l-6.517-0.713l0.396-3.63l12.138,1.328
		l-0.373,3.41l-1.355-0.147C170.742,106.948,170.919,107.086,171.053,107.219z M175.82,87.682l-4.094,0.41l-0.919,0.093
		c1.006,0.769,1.583,1.896,1.732,3.386c0.067,0.671,0.011,1.355-0.17,2.051c-0.182,0.696-0.481,1.372-0.903,2.026
		c-0.42,0.653-1.042,1.213-1.865,1.68c-0.822,0.465-1.781,0.752-2.875,0.862c-2.073,0.208-3.746-0.236-5.021-1.332
		c-1.273-1.095-1.994-2.474-2.161-4.137c-0.081-0.804,0.016-1.54,0.287-2.207c0.272-0.67,0.628-1.166,1.066-1.489l-1.292,0.13
		l-0.349-3.48l16.198-1.625L175.82,87.682z M168.088,62.854l1.763,3.199l-14.259,7.855l-1.678-3.045l1.156-0.637
		c-1.385-0.142-2.479-0.944-3.286-2.408c-0.878-1.594-1.044-3.186-0.495-4.775c0.545-1.592,1.635-2.836,3.267-3.735
		c1.733-0.956,3.403-1.192,5.008-0.712s2.804,1.44,3.596,2.879c0.687,1.246,0.84,2.527,0.458,3.842l1.156-0.638L168.088,62.854z"/>
	<path fill="#FFFFFF" d="M164.031,93.927c0.678,0.508,1.432,0.72,2.265,0.637l0.021-0.003c0.817-0.082,1.504-0.436,2.061-1.059
		c0.558-0.623,0.792-1.364,0.705-2.226c-0.092-0.919-0.476-1.622-1.15-2.107c-0.676-0.484-1.415-0.687-2.217-0.606
		c-0.876,0.088-1.589,0.436-2.14,1.044s-0.781,1.35-0.693,2.225C162.972,92.722,163.354,93.42,164.031,93.927z"/>
	<path fill="#FFFFFF" d="M163.953,116.198l-0.021-0.006c-0.824-0.264-1.603-0.213-2.335,0.155c-0.732,0.366-1.222,0.934-1.467,1.702
		c-0.244,0.768-0.175,1.515,0.211,2.237c0.384,0.724,0.996,1.22,1.835,1.487c0.838,0.267,1.623,0.217,2.356-0.15
		c0.732-0.366,1.222-0.936,1.467-1.703s0.175-1.514-0.21-2.236C165.403,116.959,164.792,116.465,163.953,116.198z"/>
	<path fill="#FFFFFF" d="M73.519,34.604c0.293,0.877,0.81,1.496,1.551,1.859c0.739,0.364,1.52,0.407,2.341,0.133
		c0.848-0.284,1.466-0.815,1.855-1.596c0.389-0.779,0.42-1.586,0.094-2.421c-0.274-0.821-0.787-1.407-1.539-1.758
		c-0.725-0.361-1.503-0.401-2.338-0.122c-0.932,0.312-1.556,0.849-1.873,1.612c-0.317,0.764-0.35,1.521-0.098,2.271L73.519,34.604z"
		/>
	<path fill="#FFFFFF" d="M40.952,65.402c-0.285-0.797-0.798-1.389-1.538-1.778l-0.02-0.011c-0.727-0.382-1.494-0.466-2.303-0.253
		c-0.808,0.212-1.413,0.702-1.815,1.468c-0.43,0.818-0.498,1.615-0.202,2.392s0.801,1.354,1.515,1.729
		c0.779,0.41,1.566,0.513,2.36,0.309c0.795-0.203,1.396-0.694,1.806-1.473C41.172,66.993,41.238,66.199,40.952,65.402z"/>
	<path fill="#231F20" d="M98.222,196.442c33.548,0,63.217-16.91,80.943-42.651c10.891-15.813,17.277-34.959,17.277-55.57
		C196.442,44.062,152.381,0,98.222,0C44.062,0,0,44.062,0,98.221c0,20.655,6.414,39.836,17.347,55.669
		C35.082,179.575,64.717,196.442,98.222,196.442z M98.222,10c32.411,0,60.79,17.571,76.126,43.685
		c7.682,13.08,12.095,28.301,12.095,44.536c0,48.645-39.575,88.221-88.221,88.221S10,146.866,10,98.221
		c0-16.18,4.383-31.354,12.017-44.404C37.335,27.63,65.756,10,98.222,10z"/>
	<path fill="#231F20" d="M42.011,71.825l-1.148-0.604c0.545-0.028,1.115-0.245,1.711-0.654c0.596-0.407,1.081-0.967,1.457-1.682
		c0.778-1.479,0.938-3.027,0.479-4.644c-0.459-1.617-1.609-2.91-3.453-3.879c-0.974-0.512-1.933-0.801-2.875-0.866
		c-0.943-0.065-1.771,0.059-2.483,0.372s-1.335,0.712-1.869,1.191c-0.535,0.481-0.96,1.021-1.273,1.618
		c-0.696,1.324-0.837,2.584-0.422,3.78l-0.817-0.43l-3.642-1.915l-1.699,3.231l14.408,7.578L42.011,71.825z M38.949,69.257
		c-0.794,0.204-1.581,0.101-2.36-0.309c-0.714-0.375-1.219-0.952-1.515-1.729s-0.228-1.574,0.202-2.392
		c0.402-0.766,1.008-1.255,1.815-1.468c0.809-0.213,1.576-0.129,2.303,0.253l0.02,0.011c0.74,0.389,1.253,0.981,1.538,1.778
		c0.286,0.797,0.22,1.591-0.197,2.383C40.346,68.563,39.744,69.054,38.949,69.257z"/>
	
		<rect x="35.424" y="52.393" transform="matrix(0.7783 0.6279 -0.6279 0.7783 43.7041 -15.3328)" fill="#231F20" width="16.279" height="3.652"/>
	
		<rect x="49.357" y="42.838" transform="matrix(-0.724 0.6899 -0.6899 -0.724 122.0003 49.0659)" fill="#231F20" width="3.652" height="12.21"/>
	
		<rect x="43.734" y="40.755" transform="matrix(0.69 0.7238 -0.7238 0.69 44.8074 -19.4585)" fill="#231F20" width="2.773" height="3.652"/>
	<path fill="#231F20" d="M62.822,47.263l-3.617-5.573c-0.415-0.639-0.63-1.234-0.646-1.784c-0.017-0.549,0.32-1.047,1.01-1.494
		c0.627-0.408,1.173-0.496,1.639-0.265c0.465,0.232,0.912,0.68,1.344,1.344l3.629,5.591l3.063-1.988l-4.155-6.403
		c-0.225-0.344-0.454-0.658-0.691-0.942c-0.236-0.284-0.564-0.581-0.986-0.894c-0.422-0.312-0.856-0.533-1.307-0.66
		s-0.988-0.136-1.617-0.026c-0.627,0.111-1.268,0.377-1.92,0.8c-0.431,0.28-0.781,0.573-1.054,0.881
		c-0.272,0.308-0.464,0.625-0.577,0.951c-0.111,0.326-0.178,0.579-0.201,0.76c-0.022,0.181-0.041,0.407-0.057,0.68l-0.707-1.088
		l-2.859,1.856l6.646,10.242L62.822,47.263z"/>
	<path fill="#231F20" d="M73.143,39.648c1.466,0.824,3.062,0.947,4.787,0.37c1.585-0.531,2.571-1.464,2.959-2.8l0.419,1.251
		l3.297-1.104l-5.168-15.438l-3.463,1.16l1.201,3.588l0.419,1.252c-1.225-0.611-2.513-0.69-3.861-0.239
		c-1.558,0.521-2.717,1.528-3.479,3.021c-0.761,1.492-0.827,3.176-0.198,5.054C70.646,37.53,71.676,38.825,73.143,39.648z
		 M73.609,32.312c0.317-0.763,0.941-1.301,1.873-1.612c0.835-0.279,1.613-0.239,2.338,0.122c0.752,0.351,1.265,0.937,1.539,1.758
		c0.326,0.835,0.295,1.642-0.094,2.421c-0.39,0.78-1.008,1.312-1.855,1.596c-0.821,0.274-1.602,0.231-2.341-0.133
		c-0.741-0.363-1.258-0.982-1.551-1.859l-0.007-0.021C73.26,33.833,73.292,33.076,73.609,32.312z"/>
	<polygon fill="#231F20" points="97.868,36.179 101.518,36.272 101.76,26.837 103.52,26.882 103.59,24.111 101.83,24.066 
		101.934,19.998 98.284,19.904 98.179,23.973 96.375,23.926 96.305,26.697 98.109,26.744 	"/>
	<path fill="#231F20" d="M114.359,25.353c-1.775-0.393-3.403-0.08-4.883,0.936c-1.479,1.018-2.406,2.379-2.784,4.083
		c-0.39,1.761-0.097,3.392,0.878,4.892s2.322,2.44,4.041,2.82c1.26,0.279,2.471,0.171,3.631-0.323
		c1.203-0.484,2.238-1.322,3.103-2.514l-3.652-0.808c-0.679,0.631-1.485,0.843-2.416,0.638c-0.717-0.159-1.294-0.489-1.729-0.991
		c-0.438-0.502-0.623-1.076-0.555-1.723l8.871,1.963c0.797-2.242,0.66-4.271-0.411-6.085
		C117.541,26.718,116.178,25.755,114.359,25.353z M110.633,29.666c0.146-0.388,0.492-0.747,1.039-1.077s1.228-0.403,2.044-0.224
		c0.816,0.181,1.403,0.535,1.759,1.065c0.355,0.529,0.518,1.001,0.486,1.414L110.633,29.666z"/>
	<path fill="#231F20" d="M130.462,37.287c-0.314-0.384-0.579-0.68-0.798-0.888c-0.218-0.209-0.547-0.499-0.987-0.87
		c-0.971-0.864-1.361-1.495-1.173-1.894c0.088-0.186,0.244-0.318,0.469-0.398s0.496-0.046,0.814,0.105
		c0.225,0.106,0.399,0.226,0.524,0.357c0.124,0.131,0.191,0.265,0.2,0.398c0.01,0.135,0.005,0.238-0.014,0.311
		c-0.018,0.073-0.042,0.159-0.072,0.258l3.24,1.534c0.261-0.721,0.353-1.395,0.277-2.024c-0.076-0.627-0.285-1.164-0.626-1.609
		c-0.34-0.445-0.693-0.814-1.057-1.109c-0.364-0.293-0.759-0.541-1.183-0.741c-1.18-0.559-2.35-0.69-3.512-0.396
		s-2.006,0.997-2.533,2.111c-0.332,0.702-0.371,1.41-0.115,2.123c0.254,0.713,0.713,1.38,1.376,2.003
		c0.207,0.211,0.435,0.445,0.68,0.698c0.245,0.254,0.435,0.445,0.567,0.573c0.135,0.129,0.275,0.275,0.424,0.443
		c0.147,0.168,0.256,0.301,0.323,0.396c0.067,0.098,0.127,0.203,0.179,0.316c0.052,0.114,0.07,0.22,0.057,0.318
		c-0.016,0.1-0.047,0.201-0.097,0.308c-0.119,0.252-0.333,0.402-0.641,0.451c-0.308,0.05-0.613,0.002-0.918-0.143
		c-0.742-0.351-1-0.887-0.772-1.606l-3.281-1.553c-0.26,0.721-0.35,1.408-0.27,2.062c0.078,0.654,0.287,1.219,0.621,1.693
		c0.336,0.475,0.705,0.877,1.109,1.206c0.403,0.329,0.838,0.604,1.301,0.823c1.273,0.603,2.504,0.76,3.696,0.472
		c1.191-0.288,2.065-1.022,2.624-2.202c0.22-0.464,0.331-0.914,0.336-1.351c0.003-0.437-0.047-0.813-0.148-1.128
		C130.982,38.02,130.773,37.67,130.462,37.287z"/>
	<polygon fill="#231F20" points="132.646,46.615 135.621,48.734 141.098,41.048 142.531,42.07 144.139,39.812 142.706,38.791 
		145.068,35.476 142.094,33.357 139.732,36.671 138.263,35.625 136.654,37.882 138.123,38.929 	"/>
	<path fill="#231F20" d="M141.178,51.268c-0.035,1.789,0.553,3.322,1.762,4.602c0.886,0.938,1.949,1.528,3.187,1.77
		c1.269,0.275,2.595,0.162,3.979-0.338l-2.569-2.719c-0.916,0.141-1.703-0.136-2.357-0.828c-0.504-0.533-0.797-1.131-0.876-1.791
		c-0.08-0.662,0.089-1.24,0.508-1.736l6.241,6.603c1.918-1.409,2.942-3.165,3.074-5.267c0.102-1.771-0.487-3.334-1.767-4.688
		c-1.249-1.322-2.771-1.977-4.565-1.965c-1.796,0.012-3.328,0.617-4.596,1.816C141.887,47.965,141.213,49.479,141.178,51.268z
		 M148.318,48.045c0.637,0.033,1.243,0.354,1.817,0.962s0.86,1.23,0.858,1.868c-0.004,0.639-0.134,1.119-0.393,1.443l-3.748-3.965
		C147.193,48.115,147.681,48.012,148.318,48.045z"/>
	<path fill="#231F20" d="M163.159,61.475c-0.792-1.438-1.991-2.398-3.596-2.879s-3.274-0.244-5.008,0.712
		c-1.632,0.899-2.722,2.144-3.267,3.735c-0.549,1.59-0.383,3.182,0.495,4.775c0.807,1.464,1.901,2.267,3.286,2.408l-1.156,0.637
		l1.678,3.045l14.259-7.855l-1.763-3.199l-3.314,1.825l-1.156,0.638C163.999,64.002,163.846,62.721,163.159,61.475z M160.812,66.059
		c-0.21,0.803-0.694,1.413-1.452,1.83c-0.764,0.471-1.562,0.585-2.399,0.342c-0.837-0.242-1.471-0.755-1.902-1.538
		c-0.418-0.758-0.516-1.534-0.29-2.327c0.225-0.793,0.741-1.412,1.551-1.858l0.02-0.011c0.693-0.382,1.443-0.486,2.251-0.312
		s1.449,0.692,1.923,1.553C160.938,64.508,161.037,65.282,160.812,66.059z"/>
	<path fill="#231F20" d="M159.605,89.155l1.292-0.13c-0.438,0.323-0.794,0.819-1.066,1.489c-0.271,0.667-0.368,1.403-0.287,2.207
		c0.167,1.663,0.888,3.042,2.161,4.137c1.275,1.096,2.948,1.54,5.021,1.332c1.094-0.11,2.053-0.397,2.875-0.862
		c0.823-0.467,1.445-1.026,1.865-1.68c0.422-0.654,0.722-1.33,0.903-2.026c0.181-0.695,0.237-1.38,0.17-2.051
		c-0.149-1.489-0.727-2.617-1.732-3.386l0.919-0.093l4.094-0.41l-0.365-3.633l-16.198,1.625L159.605,89.155z M163.576,89.607
		c0.551-0.608,1.264-0.956,2.14-1.044c0.802-0.08,1.541,0.122,2.217,0.606c0.675,0.485,1.059,1.188,1.15,2.107
		c0.087,0.861-0.147,1.603-0.705,2.226c-0.557,0.623-1.243,0.977-2.061,1.059l-0.021,0.003c-0.833,0.083-1.587-0.129-2.265-0.637
		c-0.678-0.507-1.06-1.205-1.148-2.096C162.795,90.957,163.025,90.215,163.576,89.607z"/>
	<path fill="#231F20" d="M172.251,103.543l-12.138-1.328l-0.396,3.63l6.517,0.713c0.846,0.093,1.431,0.377,1.755,0.856
		c0.324,0.478,0.434,1.19,0.33,2.138l-0.015,0.131l3.652,0.399c0.055-0.496,0.047-0.936-0.021-1.319
		c-0.068-0.383-0.199-0.704-0.393-0.96c-0.193-0.259-0.356-0.453-0.489-0.585c-0.134-0.133-0.311-0.271-0.53-0.413l1.355,0.147
		L172.251,103.543z"/>
	<path fill="#231F20" d="M168.732,115.586c-0.449-0.691-0.988-1.282-1.617-1.774c-0.627-0.493-1.305-0.854-2.031-1.087l-0.021-0.006
		c-0.741-0.236-1.51-0.337-2.308-0.297c-0.797,0.037-1.578,0.207-2.345,0.511c-0.767,0.301-1.465,0.802-2.095,1.501
		c-0.631,0.7-1.109,1.559-1.436,2.579c-0.325,1.021-0.433,1.999-0.322,2.934c0.108,0.937,0.389,1.748,0.838,2.438
		c0.45,0.689,0.989,1.281,1.617,1.773c0.628,0.493,1.312,0.857,2.053,1.094c0.74,0.235,1.509,0.336,2.307,0.296
		c0.797-0.037,1.578-0.208,2.345-0.51s1.465-0.803,2.096-1.503c0.631-0.698,1.109-1.559,1.435-2.578
		c0.325-1.021,0.433-1.998,0.323-2.935C169.462,117.088,169.182,116.276,168.732,115.586z M165.999,119.92
		c-0.245,0.768-0.734,1.337-1.467,1.703c-0.733,0.367-1.519,0.417-2.356,0.15c-0.839-0.268-1.451-0.764-1.835-1.487
		c-0.386-0.723-0.455-1.47-0.211-2.237c0.245-0.769,0.734-1.336,1.467-1.702c0.732-0.368,1.511-0.419,2.335-0.155l0.021,0.006
		c0.839,0.268,1.45,0.762,1.836,1.486C166.174,118.407,166.244,119.153,165.999,119.92z"/>
	<polygon fill="#231F20" points="164.799,131.149 162.377,129.799 161.5,131.375 153.256,126.782 151.478,129.971 159.722,134.566 
		158.865,136.103 161.287,137.453 162.143,135.916 165.698,137.896 167.477,134.706 163.921,132.725 	"/>
	<path fill="#231F20" d="M146.694,136.875l5.154,4.398c0.458,0.39,0.763,0.766,0.917,1.129c0.302,0.663,0.168,1.328-0.404,1.998
		c-0.466,0.547-1.005,0.782-1.613,0.705c-0.464-0.066-0.996-0.357-1.599-0.872l-5.054-4.312l-2.371,2.778l5.188,4.427
		c1.384,1.181,2.598,1.849,3.639,2.006c1.339,0.216,2.565-0.327,3.68-1.633c0.98-1.149,1.279-2.292,0.898-3.427l1.172,1l2.777,2.369
		l2.371-2.777l-12.385-10.566L146.694,136.875z"/>
	<path fill="#231F20" d="M138.793,147.201c-1.768-0.278-3.367,0.095-4.799,1.118c-1.049,0.751-1.779,1.724-2.188,2.917
		c-0.443,1.219-0.513,2.548-0.205,3.987l3.043-2.176c-0.016-0.927,0.365-1.668,1.141-2.223c0.598-0.427,1.229-0.635,1.895-0.623
		c0.665,0.01,1.216,0.256,1.65,0.738l-7.391,5.285c1.135,2.092,2.734,3.346,4.801,3.763c1.74,0.341,3.367-0.029,4.884-1.112
		c1.479-1.059,2.335-2.478,2.567-4.258c0.232-1.779-0.159-3.379-1.174-4.799C141.968,148.351,140.56,147.478,138.793,147.201z
		 M141.014,154.713c-0.119,0.627-0.52,1.184-1.199,1.67c-0.68,0.485-1.336,0.685-1.969,0.596c-0.631-0.09-1.09-0.285-1.377-0.585
		l4.438-3.174C141.099,153.588,141.134,154.086,141.014,154.713z"/>
	<path fill="#231F20" d="M122.549,155.223l2.675,5.986c0.347,0.775,0.396,1.425,0.146,1.946c-0.249,0.521-0.808,0.976-1.679,1.364
		l-0.121,0.055l1.5,3.354c0.455-0.203,0.831-0.432,1.127-0.685c0.297-0.253,0.507-0.527,0.631-0.824
		c0.126-0.297,0.211-0.536,0.259-0.718c0.047-0.182,0.077-0.404,0.089-0.666l0.556,1.245l3.133-1.399l-4.981-11.148L122.549,155.223
		z"/>
	<path fill="#231F20" d="M107.953,161.166c-1.199-1.188-2.729-1.719-4.587-1.591c-0.761,0.053-1.463,0.248-2.109,0.586
		c-0.646,0.338-1.103,0.804-1.371,1.395l-0.09-1.316l-3.643,0.252l0.838,12.181l3.643-0.251l-0.089-1.295
		c0.324,0.434,0.798,0.801,1.421,1.104c0.624,0.303,1.391,0.423,2.297,0.36c1.683-0.116,3.083-0.815,4.2-2.098
		c1.116-1.282,1.609-2.89,1.477-4.82C109.814,163.857,109.151,162.355,107.953,161.166z M105.662,168.094
		c-0.474,0.687-1.195,1.062-2.16,1.129c-1.317,0.092-2.278-0.408-2.882-1.499c-0.285-0.509-0.425-1.037-0.418-1.581
		c0.003-0.588,0.137-1.119,0.397-1.594c0.494-0.945,1.312-1.457,2.453-1.535c0.979-0.067,1.753,0.213,2.317,0.844
		c0.565,0.63,0.872,1.297,0.92,1.998l0.002,0.021C106.346,166.668,106.137,167.407,105.662,168.094z"/>
	<path fill="#231F20" d="M88.453,159.474l-0.219,1.078c-0.747-1.185-1.847-1.924-3.299-2.218c-1.683-0.341-3.197-0.016-4.542,0.977
		c-1.346,0.991-2.197,2.363-2.552,4.117c-0.148,0.734-0.189,1.488-0.123,2.266c0.067,0.776,0.257,1.541,0.568,2.292
		c0.311,0.752,0.818,1.412,1.517,1.98c0.701,0.568,1.555,0.954,2.561,1.158c1.538,0.312,2.92-0.007,4.145-0.956l-0.266,1.315
		l3.363,0.682l3.233-15.955l-3.579-0.726L88.453,159.474z M87.397,165.455c-0.175,0.863-0.601,1.532-1.282,2.008
		c-0.697,0.487-1.478,0.644-2.34,0.469c-0.92-0.187-1.585-0.646-1.997-1.381c-0.414-0.735-0.54-1.49-0.383-2.267l0.004-0.021
		c0.163-0.805,0.583-1.457,1.259-1.956c0.678-0.499,1.462-0.657,2.353-0.477c0.834,0.169,1.486,0.607,1.956,1.316
		C87.426,163.837,87.569,164.607,87.397,165.455z"/>
	<path fill="#231F20" d="M74.646,151.202l-1.823,3.639l-0.493,0.983c-0.412-1.339-1.28-2.34-2.604-3.003
		c-1.535-0.77-3.081-0.851-4.639-0.245c-1.559,0.605-2.738,1.708-3.54,3.308c-0.335,0.669-0.572,1.387-0.71,2.154
		c-0.139,0.767-0.155,1.554-0.051,2.36c0.104,0.808,0.42,1.577,0.947,2.309c0.528,0.731,1.251,1.328,2.168,1.788
		c1.403,0.702,2.82,0.756,4.25,0.16l-0.601,1.199l3.068,1.538l7.292-14.555L74.646,151.202z M70.241,160.337
		c-0.394,0.787-0.981,1.321-1.762,1.603c-0.8,0.288-1.594,0.234-2.38-0.16c-0.839-0.42-1.362-1.038-1.567-1.855
		c-0.207-0.816-0.132-1.578,0.223-2.287l0.01-0.02c0.368-0.734,0.944-1.254,1.728-1.559c0.784-0.305,1.583-0.252,2.396,0.154
		c0.761,0.382,1.275,0.976,1.543,1.783C70.692,158.783,70.628,159.564,70.241,160.337z"/>
	<path fill="#231F20" d="M58.764,146.045l-4.098,5.117c-0.531,0.664-1.085,1.006-1.664,1.021c-0.577,0.018-1.237-0.271-1.982-0.867
		l-0.103-0.083l-2.296,2.868c0.389,0.312,0.765,0.541,1.125,0.689c0.36,0.148,0.701,0.209,1.021,0.184
		c0.322-0.024,0.574-0.059,0.756-0.1c0.183-0.041,0.395-0.115,0.633-0.226l-0.853,1.064l2.679,2.146l7.631-9.531L58.764,146.045z"/>
	<path fill="#231F20" d="M50.081,146.841c0.598-0.497,1.095-1.092,1.491-1.785c0.397-0.692,0.674-1.442,0.831-2.252
		c0.158-0.808,0.111-1.666-0.139-2.574c-0.25-0.907-0.717-1.772-1.403-2.597c-0.685-0.822-1.452-1.439-2.299-1.851
		c-0.848-0.411-1.683-0.611-2.507-0.604c-0.823,0.008-1.611,0.145-2.364,0.41c-0.754,0.264-1.428,0.645-2.026,1.143
		c-0.597,0.496-1.094,1.092-1.491,1.785c-0.396,0.691-0.674,1.441-0.831,2.25c-0.157,0.81-0.111,1.666,0.14,2.575
		c0.25,0.907,0.718,1.773,1.402,2.596c0.686,0.823,1.452,1.44,2.299,1.852c0.848,0.41,1.683,0.612,2.506,0.604
		c0.824-0.007,1.612-0.144,2.365-0.408c0.754-0.265,1.423-0.641,2.009-1.128L50.081,146.841z M48.886,141.967
		c-0.084,0.815-0.46,1.499-1.125,2.053l-0.018,0.014c-0.676,0.563-1.422,0.812-2.239,0.748c-0.817-0.064-1.483-0.406-2-1.026
		c-0.516-0.619-0.731-1.337-0.646-2.151c0.085-0.815,0.465-1.504,1.142-2.067c0.677-0.563,1.423-0.812,2.24-0.747
		c0.817,0.063,1.483,0.406,1.999,1.025C48.755,140.435,48.971,141.153,48.886,141.967z"/>
	<polygon fill="#231F20" points="41.858,124.127 28.966,125.612 30.647,129.001 38.512,127.728 32.739,133.219 34.421,136.609 
		43.413,127.26 	"/>
	<path fill="#231F20" d="M33.331,119.84c1.758-0.408,3.104-1.374,4.036-2.901c0.934-1.525,1.202-3.146,0.804-4.86
		c-0.292-1.257-0.911-2.303-1.857-3.138c-0.956-0.877-2.157-1.45-3.605-1.716l0.845,3.644c0.862,0.341,1.401,0.977,1.617,1.905
		c0.166,0.714,0.116,1.378-0.149,1.987c-0.265,0.611-0.703,1.025-1.315,1.243l-2.052-8.852c-2.367,0.247-4.138,1.245-5.313,2.993
		c-0.982,1.478-1.264,3.124-0.843,4.938c0.411,1.771,1.394,3.105,2.949,4.001C30.003,119.983,31.631,120.234,33.331,119.84z
		 M29.577,116.115c-0.533-0.351-0.894-0.935-1.083-1.748c-0.188-0.814-0.121-1.497,0.203-2.046c0.325-0.55,0.68-0.898,1.067-1.048
		l1.232,5.314C30.583,116.624,30.11,116.465,29.577,116.115z"/>
	<path fill="#231F20" d="M34.604,101.661c1.28-1.093,1.946-2.547,2-4.365c0.049-1.671-0.486-2.919-1.606-3.745l1.319,0.039
		l0.103-3.475l-16.272-0.479l-0.108,3.65l3.782,0.111l1.32,0.039c-0.996,0.939-1.515,2.119-1.557,3.542
		c-0.049,1.642,0.497,3.077,1.634,4.307c1.138,1.229,2.695,1.873,4.675,1.932C31.754,103.271,33.325,102.752,34.604,101.661z
		 M27.013,96.375c0.026-0.879,0.333-1.597,0.922-2.151c0.589-0.585,1.316-0.864,2.181-0.839c0.896-0.017,1.642,0.291,2.24,0.925
		c0.598,0.635,0.883,1.398,0.857,2.292c-0.026,0.865-0.336,1.582-0.933,2.151c-0.597,0.569-1.356,0.841-2.28,0.813l-0.022-0.001
		c-0.792-0.023-1.491-0.314-2.099-0.876C27.273,98.127,26.984,97.357,27.013,96.375z"/>
</g>
</svg>
