<svg xmlns="http://www.w3.org/2000/svg" viewBox="0 0 196.4 200.7">
    <g id="Art">
        <circle class="cls-1" fill="#fff" cx="98.2" cy="107.5" r="93.2"/>
        <circle class="cls-2" fill="none" stroke="#231f20" stroke-miterlimit="10" stroke-width="10px" cx="98.2" cy="98.2" r="93.2"/>
        <path class="cls-3" fill="#231f20" d="M39.7,78.9A4,4,0,0,1,37,81.8h0l1.2.4-1,3.3L21.7,80.7l1.1-3.5,4.8,1.5a4.6,4.6,0,0,1-.3-3.8,6.2,6.2,0,0,1,1.3-2.3,6.1,6.1,0,0,1,6.6-1.5C38.8,72.2,40.8,75.3,39.7,78.9Zm-9.3-2.4a3,3,0,0,0,2,3.8,3,3,0,0,0,3.9-1.9,3.1,3.1,0,0,0-5.9-1.9Z"/>
        <path class="cls-3" fill="#231f20" d="M43.4,69.1,29.3,61l1.8-3.2,14.1,8.1Z"/>
        <path class="cls-3" fill="#231f20" d="M37.8,52.8l-2.2-1.7,2.3-2.9,2.2,1.7Zm10.6,8.4-9.6-7.6,2.3-2.9,9.6,7.6Z"/>
        <path class="cls-3" fill="#231f20" d="M60,49.3l-4.3-5.1c-.9-1-1.8-1.8-3.1-.7s-.9,2.2,0,3.3l4.3,5.1-2.8,2.3-7.8-9.4,2.6-2.2.8,1h0a3.5,3.5,0,0,1,1.5-3.4A5.3,5.3,0,0,1,54.3,39a4.9,4.9,0,0,1,3.6,2.1L62.8,47Z"/>
        <path class="cls-3" fill="#231f20" d="M75.4,40.5l-.5-1.2h0a4,4,0,0,1-2.6,3.1c-3.4,1.5-6.8-.1-8.3-3.4s-.5-6.9,2.8-8.4a4.8,4.8,0,0,1,3.9-.2l-2.1-4.7,3.3-1.5,6.7,14.8Zm-6.6-7.1A3.1,3.1,0,0,0,71.3,39a3,3,0,0,0,1.6-4.2A3,3,0,0,0,68.8,33.3Z"/>
        <path class="cls-3" fill="#231f20" d="M98.9,36.6A6.5,6.5,0,0,1,92.5,30a6.5,6.5,0,0,1,12.9-1.2h-3.7A2.8,2.8,0,0,0,99,27a2.9,2.9,0,0,0-2.9,3.1A2.9,2.9,0,0,0,99,33.2a2.8,2.8,0,0,0,2.7-1.6h3.7A6.5,6.5,0,0,1,98.9,36.6Z"/>
        <path class="cls-3" fill="#231f20" d="M114.9,31.6l-1.5,6.5-3.6-.8,2.8-11.9,3.3.8-.3,1.3h0a3.1,3.1,0,0,1,3.4-1l-.8,3.6C116.7,29.7,115.4,29.7,114.9,31.6Z"/>
        <path class="cls-3" fill="#231f20" d="M128.2,43.8l.6-1.2h0a4,4,0,0,1-4,0c-3.4-1.7-4.2-5.3-2.6-8.6s5.1-4.7,8.4-3.1A4.1,4.1,0,0,1,133,34h0l.6-1.2,3.3,1.6-5.4,10.9Zm1.3-9.6a3.1,3.1,0,1,0,1.4,4.1A3,3,0,0,0,129.5,34.2Z"/>
        <path class="cls-3" fill="#231f20" d="M149.7,48.4l-6.3,7L140.6,53l6.3-7-2.3-2.1-6.3,7-2.7-2.4,6.3-7-1-.9,1.9-2.1,1,.9.2-.2c2.3-2.5,4.6-.8,6,.3l.4.4-1.8,2-.3-.3a1.1,1.1,0,0,0-1.6.1h-.1l2.3,2.1,2.7-3,2.7,2.4-2.7,3,1.3,1.2L151,49.6Z"/>
        <path class="cls-3" fill="#231f20" d="M157.7,66.9l-5-7.7a2.7,2.7,0,0,0-.4,3.7,2.6,2.6,0,0,0,2.2,1.2l2,3.1a6.5,6.5,0,0,1-6.8-2.7,6.5,6.5,0,1,1,8.8,1.9Zm.3-7.8a2.7,2.7,0,0,0-3.3-1.2l3,4.6A2.7,2.7,0,0,0,158.1,59.1Z"/>
        <path class="cls-3" fill="#231f20" d="M158.2,82.4l1.3-.4h0a4,4,0,0,1-2.7-3c-1.1-3.6,1-6.7,4.4-7.8s6.9.3,8,3.8a4.8,4.8,0,0,1-.3,3.9l4.9-1.5,1.1,3.5-15.5,4.9Zm7.9-5.7a3.1,3.1,0,0,0-5.9,1.8,3,3,0,0,0,3.9,2A3,3,0,0,0,166.1,76.7Z"/>
        <path class="cls-3" fill="#231f20" d="M20.6,114.7l5.2-.9h0a4.3,4.3,0,0,1-2.3-3.4,6,6,0,0,1,5.1-6.9c3.6-.6,7.1,1.1,7.7,4.9a4.1,4.1,0,0,1-1.1,3.9h0l1.3-.2.6,3.4-16,2.8Zm12.6-5.2a3.1,3.1,0,1,0-2.5,3.6A3,3,0,0,0,33.2,109.5Z"/>
        <path class="cls-3" fill="#231f20" d="M31.4,132.8l1.2-.6h0a3.1,3.1,0,0,1-2.9-2.1,4.5,4.5,0,0,1-.2-3.9,5.2,5.2,0,0,1,2.9-2.6l6.6-3.2,1.6,3.3-6.1,2.9c-1.2.6-2.1,1.3-1.3,2.8s1.9,1.4,3.1.8l6-2.9,1.6,3.3-11,5.3Z"/>
        <path class="cls-3" fill="#231f20" d="M43.6,150l1-.9h0a4,4,0,0,1-3.7-1.5c-2.5-2.8-1.9-6.5.9-8.9s6.5-2.5,8.9.3a4.1,4.1,0,0,1,1.1,3.8h0l1-.9,2.4,2.7L46,152.7Zm4.9-8.4a3.1,3.1,0,1,0-.3,4.4A3,3,0,0,0,48.5,141.6Z"/>
        <path class="cls-3" fill="#231f20" d="M52.5,157.9l9.6-13.1,2.9,2.2-9.6,13.1Z"/>
        <path class="cls-3" fill="#231f20" d="M61.9,164.1l5.6-10.8,3.2,1.7-5.6,10.8Zm6.2-12,1.3-2.5,3.2,1.7-1.3,2.5Z"/>
        <path class="cls-3" fill="#231f20" d="M79.5,161.2l-2.9,9-3.5-1.1,2.9-9-1.7-.6.9-2.6,1.7.6,1.3-3.9,3.5,1.1-1.3,3.9,1.7.5-.9,2.6Z"/>
        <path class="cls-3" fill="#231f20" d="M89.7,177l-3.8-.4,2.4-4.4-3.2-12,3.9.4,1.7,7.3h0l3.1-6.8,3.8.4Z"/>
        <path class="cls-3" fill="#231f20" d="M116.6,161.3l2.4,9.1-3.5.9-2.4-9.1-1.7.5-.7-2.7,1.7-.5-1-3.9,3.5-.9,1,3.9,1.7-.4.7,2.7Z"/>
        <path class="cls-3" fill="#231f20" d="M135.6,157.9l-8.2,4.2a2.7,2.7,0,0,0,3.6.8,2.6,2.6,0,0,0,1.5-2l3.3-1.7a6.5,6.5,0,0,1-3.4,6.5,6.5,6.5,0,1,1,2.8-8.6Zm-7.7-1.2a2.7,2.7,0,0,0-1.5,3.1l4.9-2.5A2.7,2.7,0,0,0,127.9,156.7Z"/>
        <path class="cls-3" fill="#231f20" d="M147.6,155.4c-1.9,1.7-4.4,2-6.4.2l2.7-2.4a1.3,1.3,0,0,0,1.8-.1c.4-.4.8-1.1.3-1.5s-1.5-.2-2.2,0l-1.6.6c-1.4.5-3.2.8-4.3-.5s-.8-4.6.9-6.1,4.2-2,6.1-.1l-2.7,2.3c-.5-.5-1-.4-1.5,0a.9.9,0,0,0-.3,1.3c1.3,1.4,5.2-3.4,8-.1S149.5,153.8,147.6,155.4Z"/>
        <path class="cls-3" fill="#231f20" d="M151.1,137.2l7.4,5.8-2.3,2.9-7.4-5.8-1.1,1.4-2.2-1.7,1.1-1.4-3.2-2.5,2.3-2.9,3.2,2.5,1.1-1.4,2.2,1.7Z"/>
        <path class="cls-3" fill="#231f20" d="M164.2,123l-4,8.2a2.7,2.7,0,0,0,3.3-1.6,2.6,2.6,0,0,0-.1-2.5l1.6-3.4a6.5,6.5,0,0,1,1.2,7.2,6.5,6.5,0,1,1-3-8.5Zm-6.9,3.7a2.7,2.7,0,0,0,.7,3.4l2.4-5A2.7,2.7,0,0,0,157.3,126.7Z"/>
        <path class="cls-3" fill="#231f20" d="M172.7,108.4l-1.3-.2h0a4,4,0,0,1,1.1,3.9c-.6,3.7-3.9,5.5-7.5,4.9s-6-3.5-5.3-7.1a4.8,4.8,0,0,1,2-3.3l-5-.9.6-3.6,16,2.8Zm-9.6,1.4a3.1,3.1,0,0,0,6.1,1.1,3,3,0,0,0-2.6-3.6A3,3,0,0,0,163.1,109.8Z"/>
    </g>
</svg>