<?xml version="1.0" encoding="utf-8"?>
<!-- Generator: Adobe Illustrator 16.0.0, SVG Export Plug-In . SVG Version: 6.00 Build 0)  -->
<!DOCTYPE svg PUBLIC "-//W3C//DTD SVG 1.1//EN" "http://www.w3.org/Graphics/SVG/1.1/DTD/svg11.dtd">
<svg version="1.1" id="Layer_1" xmlns="http://www.w3.org/2000/svg" xmlns:xlink="http://www.w3.org/1999/xlink" x="0px" y="0px"
	 width="17.32px" height="24.775px" viewBox="0 0 17.32 24.775" enable-background="new 0 0 17.32 24.775" xml:space="preserve">
<path fill="#231F20" d="M17.321,24.008l-5.774-10.003c2.155-1.336,3.598-3.716,3.598-6.433C15.144,3.397,11.747,0,7.572,0
	C3.396,0,0,3.397,0,7.572s3.396,7.571,7.572,7.571c0.911,0,1.78-0.17,2.59-0.466l5.829,10.098L17.321,24.008z M1.536,7.572
	c0-3.328,2.708-6.036,6.036-6.036c3.329,0,6.037,2.708,6.037,6.036s-2.708,6.036-6.037,6.036C4.243,13.608,1.536,10.9,1.536,7.572z"
	/>
</svg>
