<?xml version="1.0" encoding="utf-8"?>
<!-- Generator: Adobe Illustrator 16.0.0, SVG Export Plug-In . SVG Version: 6.00 Build 0)  -->
<!DOCTYPE svg PUBLIC "-//W3C//DTD SVG 1.1//EN" "http://www.w3.org/Graphics/SVG/1.1/DTD/svg11.dtd">
<svg version="1.1" id="Layer_1" xmlns="http://www.w3.org/2000/svg" xmlns:xlink="http://www.w3.org/1999/xlink" x="0px" y="0px"
	 width="15.524px" height="15.523px" viewBox="0 0 15.524 15.523" enable-background="new 0 0 15.524 15.523" xml:space="preserve">
<g>
	<path fill="#FFFFFF" d="M7.762,4.713c-1.681,0-3.049,1.368-3.049,3.05c0,1.681,1.368,3.048,3.049,3.048s3.048-1.367,3.048-3.048
		C10.81,6.081,9.443,4.713,7.762,4.713z"/>
	<circle fill="#FFFFFF" cx="12.764" cy="2.978" r="0.635"/>
	<path fill="#FFFFFF" d="M10.96,0H4.564C2.054,0,0,2.054,0,4.563v6.397c0,2.509,2.054,4.562,4.564,4.562h6.396
		c2.51,0,4.563-2.054,4.563-4.562V4.563C15.524,2.054,13.47,0,10.96,0z M7.762,11.304c-1.953,0-3.542-1.59-3.542-3.541
		c0-1.953,1.589-3.543,3.542-3.543c1.953,0,3.542,1.59,3.542,3.543C11.304,9.714,9.714,11.304,7.762,11.304z M12.764,3.941
		c-0.53,0-0.964-0.433-0.964-0.964s0.434-0.964,0.964-0.964c0.531,0,0.964,0.433,0.964,0.964S13.295,3.941,12.764,3.941z"/>
</g>
</svg>
