<?xml version="1.0" encoding="utf-8"?>
<!-- Generator: Adobe Illustrator 16.0.0, SVG Export Plug-In . SVG Version: 6.00 Build 0)  -->
<!DOCTYPE svg PUBLIC "-//W3C//DTD SVG 1.1//EN" "http://www.w3.org/Graphics/SVG/1.1/DTD/svg11.dtd">
<svg version="1.1" id="Layer_1" xmlns="http://www.w3.org/2000/svg" xmlns:xlink="http://www.w3.org/1999/xlink" x="0px" y="0px"
	 width="17.591px" height="14.292px" viewBox="0 0 17.591 14.292" enable-background="new 0 0 17.591 14.292" xml:space="preserve">
<path fill="#FFFFFF" d="M15.796,3.556v0.474c0,4.766-3.625,10.263-10.255,10.263c-2.036,0-3.952-0.446-5.541-1.468
	c0.284,0.043,0.567,0.06,0.859,0.06c1.684,0,3.256-0.729,4.475-1.709c-1.563-0.017-2.911-1.082-3.358-2.508
	c0.223,0.042,0.447,0.068,0.67,0.068c0.326,0,0.653-0.043,0.962-0.129C1.959,8.28,0.713,6.82,0.713,5.068V5.025
	c0.49,0.266,1.04,0.429,1.632,0.446C1.366,4.819,0.731,3.719,0.731,2.482c0-0.671,0.188-1.22,0.489-1.752
	c1.795,2.182,4.441,3.538,7.43,3.701c-0.06-0.258-0.078-0.55-0.078-0.833C8.572,1.606,10.179,0,12.171,0
	c1.04,0,1.977,0.447,2.655,1.134c0.808-0.163,1.588-0.464,2.276-0.876c-0.268,0.841-0.834,1.554-1.59,2.001
	c0.738-0.086,1.426-0.284,2.078-0.576C17.103,2.422,16.492,3.049,15.796,3.556"/>
</svg>
