<svg viewBox="0 0 128 127" fill="none" xmlns="http://www.w3.org/2000/svg">
<g clip-path="url(#clip0-sunglasses__sun)">
<path d="M72.39 126.39L70.12 109.54C71.5 109.35 72.89 109.1 74.24 108.79L78.02 125.36C76.17 125.79 74.27 126.14 72.39 126.39ZM49.66 125.4C47.81 124.98 45.95 124.47 44.14 123.89L49.37 107.71C50.69 108.14 52.05 108.51 53.41 108.82L49.66 125.4ZM98.96 116.4L89.57 102.23C90.73 101.46 91.87 100.63 92.96 99.76L103.58 113.04C102.09 114.22 100.54 115.35 98.96 116.4ZM24.08 113.11C22.59 111.93 21.14 110.66 19.77 109.35L31.51 97.05C32.52 98.01 33.58 98.94 34.67 99.81L24.08 113.11ZM118.54 95.89L103.95 87.16C104.66 85.97 105.33 84.72 105.94 83.47L121.25 90.85C120.43 92.57 119.52 94.26 118.54 95.89ZM6.35 90.97C5.52 89.26 4.76 87.49 4.09 85.71L19.99 79.71C20.48 81.01 21.04 82.31 21.64 83.56L6.35 90.97ZM127.31 68.89L110.38 67.38C110.5 66 110.57 64.58 110.57 63.18V63.01L127.57 62.9V63.18C127.56 65.09 127.48 67.01 127.31 68.89ZM17 63.3H0V63.19C0 61.34 0.08 59.46 0.24 57.62L17.18 59.09C17.06 60.45 17 61.83 17 63.19V63.3ZM107.53 46.58C107.03 45.28 106.47 43.98 105.87 42.73L121.15 35.29C121.98 36.99 122.74 38.76 123.42 40.54L107.53 46.58ZM21.57 42.99L6.24 35.63C7.06 33.92 7.97 32.22 8.94 30.59L23.55 39.29C22.84 40.49 22.17 41.73 21.57 42.99ZM95.99 29.26C94.98 28.3 93.91 27.37 92.82 26.51L103.38 13.19C104.87 14.37 106.32 15.63 107.7 16.94L95.99 29.26ZM34.52 26.68L23.88 13.42C25.36 12.23 26.91 11.1 28.49 10.05L37.91 24.2C36.75 24.97 35.61 25.81 34.52 26.68ZM78.1 18.63C76.77 18.2 75.41 17.83 74.06 17.53L77.77 0.94C79.63 1.36 81.48 1.86 83.3 2.44L78.1 18.63ZM53.23 17.6L49.42 1.03C51.27 0.6 53.16 0.26 55.05 0L57.36 16.84C55.97 17.03 54.59 17.29 53.23 17.6Z" fill="#231F20"/>
<path d="M70.1099 96.4801C83.8894 96.4801 95.0599 85.3096 95.0599 71.5301C95.0599 57.7506 83.8894 46.5801 70.1099 46.5801C56.3304 46.5801 45.1599 57.7506 45.1599 71.5301C45.1599 85.3096 56.3304 96.4801 70.1099 96.4801Z" fill="#F0D83D"/>
<path d="M63.78 90.9599C48.46 90.9599 36 78.4999 36 63.1899C36 47.8799 48.46 35.4099 63.78 35.4099C79.1 35.4099 91.56 47.8699 91.56 63.1899C91.56 78.5099 79.1 90.9599 63.78 90.9599ZM63.78 41.0699C51.59 41.0699 41.66 50.9899 41.66 63.1799C41.66 75.3699 51.58 85.2999 63.78 85.2999C75.97 85.2999 85.89 75.3799 85.89 63.1799C85.9 50.9899 75.97 41.0699 63.78 41.0699Z" fill="#231F20"/>
</g>
<defs>
<clipPath id="clip0-sunglasses__sun">
<rect width="127.56" height="126.39" fill="white"/>
</clipPath>
</defs>
</svg>
