<svg viewBox="0 0 120 114" fill="none" xmlns="http://www.w3.org/2000/svg">
<g clip-path="url(#clip0-sunglasses__diamond)">
<path d="M46.38 43.3H99.95L114.46 69.2301L75.28 113.01L33.21 69.2301L46.38 43.3Z" fill="#F0D83D"/>
<path d="M88.6798 35.24H31.7098L16.8398 64.51L62.4198 111.94L104.98 64.38L88.6798 35.24ZM73.8398 66.83L62.1398 99.88L48.4398 66.83H73.8398ZM49.3898 61.16L60.8998 43.3L72.3498 61.16H49.3898ZM66.0798 40.9H83.0098L76.9898 57.91L66.0798 40.9ZM44.7498 57.92L37.6898 40.9H55.7098L44.7498 57.92ZM39.9598 61.16H24.8898L33.1898 44.83L39.9598 61.16ZM42.3098 66.83L53.9798 94.98L26.9298 66.83H42.3098ZM79.8398 66.83H95.1898L69.7998 95.2L79.8398 66.83ZM81.8498 61.16L87.5998 44.9L96.6998 61.16H81.8498Z" fill="#231F20"/>
<path d="M115.153 14.0073L99.3984 29.7615L103.401 33.7637L119.155 18.0095L115.153 14.0073Z" fill="#231F20"/>
<path d="M63.7298 0H58.0698V21.8H63.7298V0Z" fill="#231F20"/>
<path d="M4.00316 13.8272L0.000976562 17.8293L16.1158 33.9442L20.118 29.942L4.00316 13.8272Z" fill="#231F20"/>
</g>
<defs>
<clipPath id="clip0-sunglasses__diamond">
<rect width="119.16" height="113.01" fill="white"/>
</clipPath>
</defs>
</svg>
