<svg viewBox="0 0 126 108" fill="none" xmlns="http://www.w3.org/2000/svg">
<g clip-path="url(#clip0--sunglasses__shield)">
<path d="M60.8201 31.29C47.4001 91.05 78.9801 107.41 78.9801 107.41C78.9801 107.41 112.17 105.59 125.59 45.83C125.59 45.83 111.27 52.77 94.3801 38.82C74.3001 43.11 60.8201 31.29 60.8201 31.29Z" fill="#F0D83D"/>
<path d="M70.29 100.71L69.6 100.35C68.23 99.6399 36.24 82.2799 49.98 21.0899L51.03 16.4399L54.61 19.5799C55.15 20.0499 67.38 30.3999 85.72 26.4799L87.06 26.1899L88.12 27.0599C103.29 39.5799 115.78 33.9399 116.31 33.6999L121.54 31.2399L120.29 36.8699C106.56 98.0199 72.52 100.58 71.07 100.65L70.29 100.71ZM54.63 26.5299C51.51 42.5799 50.24 63.6799 59.09 80.4699C63.77 89.3499 69.56 93.6399 71.53 94.9099C73.72 94.5599 80.27 93.0399 87.79 86.9499C101.95 75.4699 109.58 56.1099 113.62 40.3499C107.67 41.4499 97.21 41.3999 85.56 32.2799C71.11 34.9399 60.08 29.9099 54.63 26.5299Z" fill="#231F20"/>
<path d="M81.02 64.69L0 17.73L2.84 12.83L75.36 54.87V6.46997H81.02V64.69Z" fill="#231F20"/>
<path d="M68.5901 9.6L78.1901 0L87.7901 9.6H68.5901Z" fill="#231F20"/>
</g>
<defs>
<clipPath id="clip0--sunglasses__shield">
<rect width="125.59" height="107.41" fill="white"/>
</clipPath>
</defs>
</svg>
